<?xml version="1.0" encoding="UTF-8" standalone="no"?>
<!-- Created with Inkscape (http://www.inkscape.org/) -->

<svg
   version="1.1"
   id="svg2"
   xml:space="preserve"
   width="1066.6667"
   height="754.66669"
   viewBox="0 0 1066.6667 754.66669"
   xmlns="http://www.w3.org/2000/svg"
   xmlns:svg="http://www.w3.org/2000/svg"><defs
     id="defs6"><clipPath
       clipPathUnits="userSpaceOnUse"
       id="clipPath16"><path
         d="M 0,566 H 800 V 0 H 0 Z"
         id="path14" /></clipPath></defs><g
     id="g102"
     transform="matrix(1.3333333,0,0,-1.3333333,649.17318,262.57815)"><path
       d="m 0,0 c 0,0 -0.046,0.688 -0.132,1.979 -0.029,0.321 -0.021,0.684 -0.086,1.075 -0.066,0.391 -0.138,0.818 -0.217,1.279 -0.085,0.459 -0.139,0.959 -0.261,1.48 -0.142,0.516 -0.292,1.064 -0.45,1.643 -0.681,2.293 -1.756,5.036 -3.629,7.804 -1.843,2.768 -4.43,5.604 -7.85,7.876 -1.733,1.083 -3.573,2.194 -5.657,2.948 -0.518,0.196 -1.039,0.393 -1.566,0.591 -0.544,0.146 -1.091,0.293 -1.643,0.441 -0.555,0.159 -1.111,0.309 -1.647,0.372 -0.543,0.093 -1.09,0.187 -1.64,0.282 -0.547,0.103 -1.277,0.098 -1.912,0.152 l -0.993,0.061 -0.498,0.031 c -0.151,0.004 0.135,0 0.085,-10e-4 l -0.056,-0.003 -0.114,-0.005 -0.227,-0.009 c -1.21,-0.068 -2.448,-0.033 -3.672,-0.267 -2.478,-0.263 -4.924,-1.033 -7.323,-1.99 -2.402,-0.989 -4.644,-2.422 -6.761,-4.06 -2.079,-1.7 -3.914,-3.731 -5.512,-5.965 -1.552,-2.272 -2.751,-4.794 -3.644,-7.436 L -55.956,6.256 C -56.178,5.575 -56.203,4.925 -56.343,4.257 -56.46,3.598 -56.595,2.95 -56.614,2.156 l -0.142,-2.157 c 0.03,-2.818 0.351,-5.637 1.118,-8.35 0.845,-2.683 2.004,-5.259 3.528,-7.599 1.571,-2.3 3.393,-4.409 5.477,-6.19 2.116,-1.731 4.399,-3.229 6.859,-4.25 0.586,-0.316 1.238,-0.468 1.849,-0.709 0.623,-0.21 1.226,-0.475 1.868,-0.6 0.632,-0.156 1.261,-0.312 1.887,-0.467 0.624,-0.148 1.231,-0.188 1.84,-0.292 1.146,-0.236 2.587,-0.223 3.904,-0.293 l 0.251,-0.011 0.125,-0.005 0.063,-0.003 c 0.045,-0.002 -0.165,0.007 -0.049,0.005 l 0.464,0.03 0.925,0.056 c 0.611,0.052 1.226,0.037 1.824,0.139 4.818,0.612 9.142,2.422 12.603,4.799 3.462,2.403 6.042,5.352 7.862,8.207 1.857,2.853 2.832,5.683 3.449,8.013 0.14,0.588 0.273,1.145 0.399,1.669 0.104,0.519 0.137,0.989 0.206,1.433 0.063,0.441 0.12,0.85 0.174,1.224 0.053,0.377 0.039,0.817 0.06,1.159 0.048,1.421 0.073,2.179 0.073,2.179 z m 5.638,-0.143 c 0,0 -0.028,-0.757 -0.02,-2.181 -0.001,-0.369 0.04,-0.727 0.005,-1.22 C 5.599,-4.046 5.571,-4.593 5.542,-5.185 5.502,-5.774 5.49,-6.438 5.408,-7.102 5.303,-7.752 5.191,-8.443 5.073,-9.173 5.007,-9.539 4.961,-9.921 4.872,-10.303 4.757,-10.676 4.638,-11.059 4.517,-11.45 4.253,-12.227 4,-13.054 3.619,-13.864 c -0.405,-0.798 -0.828,-1.629 -1.266,-2.49 -0.496,-0.829 -1.046,-1.665 -1.599,-2.534 -0.565,-0.862 -1.266,-1.669 -1.927,-2.538 -0.67,-0.863 -1.498,-1.633 -2.276,-2.48 -0.803,-0.823 -1.737,-1.557 -2.637,-2.356 -0.965,-0.723 -1.991,-1.414 -3.034,-2.109 -4.283,-2.621 -9.523,-4.466 -15.168,-4.914 -0.701,-0.081 -1.417,-0.041 -2.13,-0.065 l -1.073,-0.011 -0.538,-0.004 -0.191,0.004 -0.062,0.006 -0.125,0.011 -0.25,0.023 c -1.349,0.143 -2.618,0.185 -4.184,0.497 -3.044,0.44 -5.813,1.424 -8.603,2.671 -0.676,0.345 -1.355,0.692 -2.036,1.04 -0.675,0.356 -1.301,0.807 -1.955,1.21 l -0.98,0.608 -0.929,0.692 c -0.61,0.474 -1.251,0.916 -1.839,1.424 -2.378,2.016 -4.429,4.425 -6.247,7.022 -1.777,2.633 -3.148,5.553 -4.163,8.609 -0.972,3.078 -1.447,6.303 -1.569,9.546 l 0.079,2.384 c -0.007,0.728 0.113,1.573 0.229,2.41 0.133,0.82 0.178,1.698 0.398,2.469 l 0.571,2.372 c 0.939,3.111 2.261,6.102 4.004,8.82 1.789,2.68 3.884,5.135 6.283,7.216 2.44,2.02 5.063,3.793 7.893,5.064 2.825,1.246 5.754,2.219 8.72,2.611 1.469,0.3 2.951,0.314 4.408,0.414 l 0.273,0.016 0.137,0.008 0.068,0.004 c -0.006,0 0.32,-0.008 0.21,-0.005 l 0.499,-0.019 0.993,-0.04 c 0.68,-0.042 1.27,-0.014 2.011,-0.115 1.455,-0.22 2.984,-0.337 4.291,-0.723 0.674,-0.167 1.343,-0.333 2.007,-0.497 0.651,-0.211 1.287,-0.448 1.922,-0.67 2.548,-0.883 4.851,-2.134 6.961,-3.472 4.155,-2.8 7.278,-6.281 9.428,-9.705 2.203,-3.409 3.4,-6.777 4.146,-9.561 C 4.551,8.278 4.723,7.615 4.885,6.991 5.024,6.362 5.091,5.76 5.187,5.206 5.271,4.65 5.351,4.136 5.423,3.665 5.492,3.194 5.486,2.759 5.518,2.373 5.598,0.826 5.641,0 5.641,0 Z"
       style="fill:#000000;fill-opacity:1;fill-rule:nonzero;stroke:none"
       id="path104" /></g><g
     id="g106"
     transform="matrix(1.3333333,0,0,-1.3333333,568.84505,230.49735)"><path
       d="m 0,0 c 0,-2.479 -2.007,-4.488 -4.489,-4.488 -2.476,0 -4.487,2.009 -4.487,4.488 0,2.479 2.011,4.487 4.487,4.487 C -2.007,4.487 0,2.479 0,0"
       style="fill:#000000;fill-opacity:1;fill-rule:nonzero;stroke:none"
       id="path108" /></g><g
     id="g110"
     transform="matrix(1.3333333,0,0,-1.3333333,610.63798,262.57815)"><path
       d="m 0,0 c 0,-2.512 -2.035,-4.549 -4.544,-4.549 -2.514,0 -4.55,2.037 -4.55,4.549 0,2.51 2.036,4.545 4.55,4.545 C -2.035,4.545 0,2.51 0,0"
       style="fill:#000000;fill-opacity:1;fill-rule:nonzero;stroke:none"
       id="path112" /></g><g
     id="g114"
     transform="matrix(1.3333333,0,0,-1.3333333,565.76825,262.58068)"><path
       d="M 0,0 C 0,0 -8.078,-10.684 -10.192,-8.954 -12.309,-7.222 -14.207,3.814 -12.117,3.59 -10.024,3.366 1.896,2.376 0,0"
       style="fill:#000000;fill-opacity:1;fill-rule:nonzero;stroke:none"
       id="path116" /></g><g
     id="g118"
     transform="matrix(1.3333333,0,0,-1.3333333,565.76825,262.58068)"><path
       d="M 0,0 C 0,0 -8.078,-10.684 -10.192,-8.954 -12.309,-7.222 -14.207,3.814 -12.117,3.59 -10.024,3.366 1.896,2.376 0,0 Z"
       style="fill:none;stroke:#000000;stroke-width:3.077;stroke-linecap:butt;stroke-linejoin:miter;stroke-miterlimit:10;stroke-dasharray:none;stroke-opacity:1"
       id="path120" /></g><g
     id="g122"
     transform="matrix(1.3333333,0,0,-1.3333333,550.55465,279.39068)"><path
       d="m 0,0 c 0,0 23.849,-7.951 19.232,-55.135 -11.794,1.028 -18.977,3.079 -22.823,5.899 3.846,6.154 5.126,9.742 5.126,17.95 C 1.535,-23.08 -1.217,-3.654 0,0 Z"
       style="fill:none;stroke:#000000;stroke-width:6.154;stroke-linecap:round;stroke-linejoin:round;stroke-miterlimit:10;stroke-dasharray:none;stroke-opacity:1"
       id="path124" /></g><g
     id="g126"
     transform="matrix(1.3333333,0,0,-1.3333333,576.61199,327.77735)"><path
       d="m 0,0 c -2.384,30.553 -19.543,36.29 -19.543,36.29 -1.217,-3.654 1.535,-23.08 1.535,-31.286 0,-6.735 -0.888,-10.374 -3.323,-14.859 C -13.403,-2.311 -4.526,-0.441 0,0"
       style="fill:#000000;fill-opacity:1;fill-rule:nonzero;stroke:none"
       id="path128" /></g><g
     id="g130"
     transform="matrix(1.3333333,0,0,-1.3333333,484.99732,313.45188)"><path
       d="m 0,0 c 0,0 0.039,1.532 0.277,4.149 0.12,1.312 0.241,2.91 0.466,4.73 0.212,1.822 0.477,3.873 0.824,6.103 0.317,2.236 0.763,4.639 1.227,7.185 0.491,2.54 1.06,5.21 1.689,7.965 0.658,2.748 1.357,5.585 2.143,8.453 0.77,2.871 1.614,5.777 2.544,8.66 0.915,2.887 1.924,5.752 2.959,8.561 1.069,2.799 2.208,5.527 3.398,8.139 1.2,2.609 2.43,5.108 3.723,7.429 0.652,1.158 1.265,2.294 1.948,3.355 0.66,1.07 1.292,2.105 1.993,3.055 1.32,1.937 2.685,3.634 3.936,5.107 0.654,0.719 1.266,1.392 1.831,2.014 0.6,0.599 1.179,1.13 1.69,1.615 0.998,0.989 1.951,1.627 2.537,2.112 0.604,0.47 0.926,0.72 0.926,0.72 1.339,1.041 3.268,0.798 4.309,-0.541 1.01,-1.299 0.811,-3.154 -0.425,-4.214 l -0.239,-0.204 c 0,0 -0.256,-0.219 -0.737,-0.63 -0.47,-0.43 -1.222,-0.954 -2.04,-1.845 -0.42,-0.427 -0.901,-0.879 -1.402,-1.402 -0.478,-0.552 -0.996,-1.15 -1.55,-1.788 -1.067,-1.32 -2.245,-2.847 -3.402,-4.634 -0.609,-0.864 -1.167,-1.833 -1.775,-2.811 -0.623,-0.967 -1.189,-2.029 -1.79,-3.105 -1.196,-2.157 -2.346,-4.513 -3.475,-6.985 -0.572,-1.231 -1.09,-2.521 -1.65,-3.805 -0.522,-1.306 -1.05,-2.627 -1.582,-3.96 -1.027,-2.685 -2.032,-5.433 -2.952,-8.219 -0.922,-2.784 -1.818,-5.583 -2.63,-8.363 -0.829,-2.775 -1.574,-5.53 -2.279,-8.202 C 9.081,23.298 7.877,18.27 6.834,13.957 4.806,5.311 3.453,-0.453 3.453,-0.453 3.232,-1.394 2.291,-1.978 1.35,-1.757 0.528,-1.564 -0.021,-0.822 0,-0.01 Z"
       style="fill:#000000;fill-opacity:1;fill-rule:nonzero;stroke:none"
       id="path132" /></g><g
     id="g134"
     transform="matrix(1.3333333,0,0,-1.3333333,576.99999,174.01428)"><path
       d="m 0,0 c 2.441,-0.104 4.906,-0.252 7.353,-0.342 l 7.347,-0.256 7.349,-0.184 c 2.449,-0.093 4.899,-0.123 7.349,-0.169 l 14.717,-0.389 7.375,-0.233 7.405,-0.284 0.069,-0.003 c 1.584,-0.06 2.819,-1.394 2.759,-2.978 -0.002,-0.048 -0.006,-0.106 -0.011,-0.153 -0.198,-2.153 -0.341,-4.316 -0.571,-6.436 -0.117,-1.062 -0.197,-2.133 -0.343,-3.187 l -0.421,-3.166 c -0.143,-1.054 -0.326,-2.1 -0.481,-3.15 -0.13,-1.055 -0.295,-2.103 -0.454,-3.152 l -0.449,-3.155 -0.425,-3.197 -2.46,3.664 c 1.207,-0.28 2.29,-0.561 3.408,-0.875 1.112,-0.3 2.205,-0.637 3.303,-0.96 l 3.277,-0.996 c 1.084,-0.354 2.176,-0.682 3.252,-1.058 2.156,-0.736 4.304,-1.484 6.448,-2.25 l 3.188,-1.217 c 1.068,-0.395 2.109,-0.857 3.164,-1.283 1.052,-0.434 2.11,-0.852 3.152,-1.312 l 3.136,-1.354 3.097,-1.444 c 1.04,-0.467 2.048,-1.001 3.077,-1.494 1.022,-0.507 2.058,-0.987 3.07,-1.518 l 3.023,-1.616 c 2.046,-1.028 4.008,-2.22 6.021,-3.327 l 0.214,-0.147 c 1.172,-0.802 1.558,-2.325 0.971,-3.57 L 95.018,-78.604 c -1.085,-2.269 -2.099,-4.57 -3.152,-6.854 -1.047,-2.287 -2.138,-4.551 -3.15,-6.855 l -3.071,-6.892 c -0.984,-2.32 -2.008,-4.612 -2.962,-6.956 l -2.285,4.396 c 2.17,-0.415 4.121,-0.901 6.141,-1.436 2,-0.534 3.98,-1.12 5.945,-1.745 3.934,-1.237 7.819,-2.619 11.62,-4.214 3.803,-1.588 7.535,-3.354 11.164,-5.321 3.631,-1.961 7.142,-4.151 10.538,-6.515 6.809,-4.692 13.073,-10.286 18.241,-16.892 0.609,-0.812 1.223,-1.589 1.829,-2.43 l 1.811,-2.545 1.72,-2.573 1.642,-2.626 c 2.138,-3.534 4.068,-7.2 5.755,-10.976 3.369,-7.552 5.787,-15.541 7.101,-23.694 0.665,-4.076 1.081,-8.184 1.281,-12.297 0.204,-4.116 0.126,-8.232 -0.098,-12.331 -0.212,-4.103 -0.692,-8.179 -1.277,-12.231 -0.576,-4.056 -1.401,-8.064 -2.268,-12.056 -0.944,-3.973 -1.934,-7.936 -3.121,-11.836 -1.141,-3.915 -2.445,-7.775 -3.784,-11.62 -0.382,-1.096 -1.581,-1.675 -2.678,-1.293 -0.939,0.327 -1.499,1.253 -1.4,2.201 l 0.053,0.513 c 0.212,2.044 0.621,4.01 0.992,5.981 0.359,1.973 0.837,3.904 1.227,5.853 0.923,3.862 1.79,7.71 2.741,11.539 0.847,3.848 1.655,7.706 2.217,11.593 0.574,3.884 1.038,7.783 1.262,11.688 0.276,3.9 0.415,7.812 0.285,11.712 -0.124,3.899 -0.458,7.788 -1.017,11.645 -1.097,7.718 -3.235,15.278 -6.288,22.482 -1.53,3.6 -3.294,7.11 -5.267,10.51 l -1.519,2.531 -1.597,2.485 -1.652,2.417 c -0.558,0.808 -1.182,1.628 -1.768,2.441 -2.334,3.092 -4.971,6.008 -7.817,8.696 -2.869,2.669 -5.98,5.086 -9.224,7.311 -3.261,2.207 -6.692,4.167 -10.209,5.955 -3.521,1.783 -7.143,3.375 -10.832,4.795 -3.686,1.427 -7.453,2.649 -11.251,3.728 -1.909,0.512 -3.826,0.985 -5.748,1.407 -1.901,0.415 -3.894,0.807 -5.705,1.068 -1.666,0.241 -2.821,1.787 -2.581,3.453 0.042,0.293 0.125,0.571 0.242,0.828 l 0.055,0.116 c 0.625,1.083 1.234,2.179 1.827,3.285 l 1.793,3.308 3.447,6.687 c 1.143,2.231 2.207,4.501 3.314,6.75 1.073,2.265 2.185,4.511 3.227,6.791 l 3.08,6.853 1.531,3.43 c 0.527,1.136 0.964,2.308 1.45,3.461 l 1.423,3.469 c 0.463,1.16 0.977,2.305 1.395,3.476 l 2.542,7.018 1.186,-3.717 v 0 l -2.713,1.85 c -0.903,0.62 -1.807,1.244 -2.75,1.806 l -2.825,1.692 c -0.946,0.557 -1.922,1.066 -2.882,1.602 -1.91,1.093 -3.927,1.985 -5.897,2.966 l -3.014,1.358 c -1.001,0.46 -2.014,0.895 -3.045,1.287 -1.028,0.397 -2.042,0.83 -3.082,1.198 l -3.106,1.133 -3.133,1.057 c -1.043,0.358 -2.111,0.637 -3.163,0.959 -2.118,0.609 -4.244,1.179 -6.381,1.685 -1.073,0.226 -2.146,0.466 -3.217,0.666 -1.061,0.212 -2.168,0.403 -3.159,0.553 -1.629,0.247 -2.75,1.768 -2.503,3.398 l 0.004,0.028 0.039,0.24 c 0.254,0.953 0.555,1.96 0.76,2.963 0.215,1.005 0.459,2.008 0.619,3.026 0.178,1.014 0.364,2.027 0.514,3.045 0.132,1.021 0.276,2.042 0.387,3.063 l 0.32,3.062 c 0.115,1.021 0.161,2.039 0.244,3.058 l 0.112,1.528 c 0.048,0.509 0.034,1.014 0.039,1.522 l 0.018,3.037 2.817,-3.135 -7.232,0.724 c -2.413,0.25 -4.852,0.34 -7.278,0.518 -2.427,0.168 -4.859,0.316 -7.297,0.39 l -7.309,0.274 c -2.439,0.069 -4.877,0.155 -7.317,0.18 l -7.321,0.068 C 12.183,-5.828 9.741,-5.888 7.301,-5.911 6.079,-5.913 4.861,-5.98 3.643,-6.018 l -3.661,-0.136 c -1.7,-0.064 -3.129,1.262 -3.193,2.962 -0.063,1.7 1.264,3.13 2.963,3.193 C -0.168,0.004 -0.078,0.003 0,0"
       style="fill:#000000;fill-opacity:1;fill-rule:nonzero;stroke:none"
       id="path136" /></g><g
     id="g138"
     transform="matrix(1.3333333,0,0,-1.3333333,665.63025,523.00134)"><path
       d="m 0,0 c -1.001,0.031 -2.102,0.032 -3.159,0.019 -1.069,-0.016 -2.138,-0.049 -3.204,-0.101 -2.133,-0.105 -4.256,-0.283 -6.345,-0.559 -2.086,-0.278 -4.145,-0.649 -6.094,-1.181 -1.937,-0.531 -3.805,-1.229 -5.238,-2.152 -0.72,-0.455 -1.291,-0.969 -1.679,-1.472 -0.088,-0.109 -0.199,-0.291 -0.234,-0.339 l -0.408,-0.721 c -0.202,-0.387 -0.4,-0.778 -0.6,-1.223 -0.765,-1.713 -1.255,-3.541 -1.299,-5.23 -0.02,-0.838 0.053,-1.646 0.262,-2.314 0.195,-0.683 0.506,-1.206 0.87,-1.594 0.38,-0.371 0.82,-0.654 1.441,-0.818 0.61,-0.169 1.365,-0.227 2.191,-0.153 l 0.029,0.003 c 1.679,0.15 3.162,-1.087 3.314,-2.766 0.031,-0.342 0,-0.689 -0.076,-1.005 -0.037,-0.144 -0.062,-0.468 -0.047,-0.802 0.007,-0.339 0.066,-0.72 0.143,-1.096 0.167,-0.756 0.441,-1.519 0.823,-2.182 0.186,-0.335 0.396,-0.647 0.626,-0.928 0.225,-0.289 0.479,-0.532 0.734,-0.767 0.268,-0.213 0.54,-0.416 0.835,-0.572 0.294,-0.159 0.597,-0.299 0.928,-0.393 0.323,-0.106 0.668,-0.177 1.033,-0.214 0.358,-0.05 0.743,-0.048 1.133,-0.037 l 0.599,0.045 0.618,0.098 c 0.416,0.088 0.838,0.169 1.267,0.308 0.427,0.124 0.857,0.27 1.289,0.448 0.433,0.149 0.863,0.375 1.296,0.562 0.431,0.202 0.859,0.445 1.291,0.662 l 1.276,0.749 0.086,0.051 c 1.462,0.857 3.341,0.367 4.197,-1.094 0.404,-0.687 0.507,-1.472 0.354,-2.195 -0.281,-1.307 0.08,-3.221 0.88,-4.795 0.779,-1.592 2.066,-2.933 3.204,-3.347 0.565,-0.207 1.046,-0.242 1.596,-0.104 0.547,0.132 1.182,0.48 1.818,1.019 1.284,1.085 2.458,2.808 3.433,4.662 l 0.003,0.004 0.187,0.302 c 0.731,1.184 2.175,1.658 3.435,1.211 1.116,-0.394 2.383,-0.754 3.674,-1.054 1.287,-0.314 2.6,-0.605 3.919,-0.876 2.646,-0.507 5.316,-0.969 7.996,-1.374 5.36,-0.809 10.768,-1.385 16.145,-1.679 1.342,-0.061 2.687,-0.12 4.016,-0.126 1.311,-0.019 2.711,-0.016 4.056,0.009 2.686,0.056 5.385,0.1 7.642,0.658 1.119,0.269 2.085,0.671 2.725,1.195 0.651,0.516 1.061,1.151 1.342,2.054 0.273,0.892 0.354,2.014 0.329,3.178 -0.022,1.172 -0.178,2.404 -0.403,3.645 l -10e-4,0.005 -0.016,0.17 c -0.158,1.66 1.06,3.135 2.72,3.292 0.15,0.015 0.314,0.016 0.459,0.009 4.743,-0.273 9.159,-1.283 13.463,-2.276 4.302,-1.017 8.511,-2.086 12.735,-3.037 4.221,-0.947 8.455,-1.758 12.71,-2.453 4.264,-0.625 8.542,-1.172 12.845,-1.488 l 3.226,-0.254 3.233,-0.154 c 1.079,-0.045 2.156,-0.114 3.236,-0.141 l 3.241,-0.051 c 4.308,-0.1 8.679,-0.016 12.994,0.132 8.644,0.317 17.263,1.157 25.635,2.989 8.349,1.832 16.498,4.694 23.581,9.252 7.09,4.516 12.901,10.886 16.562,18.445 1.824,3.777 3.163,7.798 4.078,11.929 0.451,2.068 0.804,4.161 1.075,6.27 l 0.175,1.586 0.044,0.396 c 0.009,0.049 0.021,0.248 0.03,0.365 l 0.064,0.818 0.248,3.267 c 0.423,8.469 -0.049,17.158 -2.173,25.368 -2.067,8.21 -5.645,16.057 -10.948,22.506 -5.219,6.459 -12.305,11.472 -20.161,13.422 -1.954,0.499 -3.951,0.775 -5.939,0.816 -0.982,0.06 -2.012,-0.028 -2.941,-0.077 l -1.632,-0.163 -1.474,-0.212 c -4.009,-0.646 -7.917,-1.939 -11.287,-4.02 -3.378,-2.068 -6.199,-4.933 -8.174,-8.336 -1.986,-3.398 -3.127,-7.3 -3.513,-11.315 -0.194,-2.009 -0.234,-4.048 -0.106,-6.092 0.131,-2.057 0.446,-4.059 0.832,-6.147 0.798,-4.176 1.889,-8.327 3.038,-12.522 0.576,-2.102 1.178,-4.214 1.715,-6.409 0.508,-2.211 1.059,-4.461 0.97,-7.156 -0.061,-1.332 -0.366,-2.886 -1.266,-4.264 -0.896,-1.383 -2.248,-2.309 -3.495,-2.85 -1.267,-0.556 -2.499,-0.833 -3.694,-1.028 -0.6,-0.098 -1.189,-0.164 -1.775,-0.219 -0.305,-0.022 -0.553,-0.052 -0.905,-0.066 l -0.819,-0.037 c -2.15,-0.118 -4.456,-0.153 -6.664,-0.17 -2.212,-0.011 -4.415,0.029 -6.615,0.067 -4.4,0.072 -8.787,0.253 -13.171,0.397 -8.774,0.312 -17.516,0.618 -26.339,0.608 -1.705,-0.002 -3.089,1.379 -3.091,3.084 -0.002,1.705 1.379,3.089 3.084,3.091 0.159,0 0.315,-0.012 0.469,-0.034 l 0.032,-0.006 c 8.615,-1.363 17.332,-2.157 26.03,-2.649 8.69,-0.424 17.452,-0.749 25.997,-0.136 2.075,0.135 4.12,0.451 5.609,1.153 1.482,0.752 1.893,1.494 1.964,3.229 0.022,1.693 -0.474,3.749 -1.026,5.765 -0.566,2.036 -1.229,4.11 -1.877,6.207 -1.317,4.193 -2.531,8.488 -3.459,12.888 -0.948,4.444 -1.38,9.165 -0.898,13.844 0.474,4.674 1.846,9.361 4.303,13.509 2.433,4.155 5.959,7.683 10.054,10.155 4.101,2.495 8.669,3.959 13.283,4.674 l 1.775,0.241 1.633,0.143 c 0.655,0.062 1.212,0.049 1.823,0.074 0.599,0.032 1.194,0.009 1.789,-0.023 2.382,-0.085 4.74,-0.448 7.015,-1.061 2.281,-0.588 4.496,-1.394 6.595,-2.412 1.07,-0.473 2.073,-1.066 3.095,-1.621 0.98,-0.621 1.995,-1.195 2.923,-1.887 1.924,-1.298 3.66,-2.828 5.358,-4.38 1.639,-1.616 3.225,-3.285 4.627,-5.095 5.732,-7.171 9.443,-15.69 11.525,-24.44 1.061,-4.379 1.679,-8.842 2.011,-13.305 0.325,-4.473 0.332,-8.919 0.08,-13.434 -0.467,-8.781 -2.199,-17.928 -6.216,-26.102 -1.973,-4.102 -4.525,-7.949 -7.565,-11.36 -3.037,-3.415 -6.559,-6.382 -10.364,-8.861 -7.633,-4.974 -16.252,-8.027 -24.939,-9.992 -8.716,-1.952 -17.57,-2.861 -26.387,-3.337 -4.423,-0.214 -8.799,-0.36 -13.236,-0.322 l -3.318,0.005 c -1.106,0.013 -2.213,0.066 -3.318,0.098 l -3.321,0.111 -3.316,0.213 c -8.846,0.564 -17.663,1.826 -26.333,3.571 -4.328,0.877 -8.62,1.867 -12.851,2.769 -4.224,0.897 -8.413,1.667 -12.421,1.786 l 3.164,3.471 10e-4,-0.006 c 0.113,-1.475 0.176,-2.978 0.107,-4.545 -0.088,-1.563 -0.285,-3.206 -0.933,-4.9 -0.607,-1.68 -1.797,-3.418 -3.379,-4.506 -1.563,-1.119 -3.253,-1.632 -4.795,-1.942 -1.558,-0.304 -3.043,-0.409 -4.482,-0.479 -1.441,-0.062 -2.846,-0.065 -4.232,-0.058 l -4.157,0.04 c -1.409,0.017 -2.799,0.088 -4.191,0.162 -5.561,0.292 -11.054,0.835 -16.555,1.425 -2.752,0.29 -5.498,0.638 -8.253,1.036 -1.38,0.179 -2.761,0.379 -4.158,0.612 -1.393,0.233 -2.796,0.489 -4.311,0.849 l 3.621,1.513 -0.003,-0.006 C 13.42,-36.646 12,-38.925 9.72,-40.894 8.576,-41.858 7.154,-42.745 5.425,-43.18 c -1.718,-0.455 -3.676,-0.307 -5.29,0.327 -1.624,0.632 -2.937,1.625 -3.985,2.724 -1.051,1.105 -1.873,2.326 -2.523,3.618 -0.645,1.296 -1.119,2.667 -1.393,4.126 -0.269,1.456 -0.339,3.019 -0.009,4.67 l 4.636,-3.238 -1.543,-0.905 c -0.539,-0.278 -1.062,-0.57 -1.616,-0.83 -0.564,-0.251 -1.105,-0.526 -1.702,-0.739 -0.576,-0.236 -1.177,-0.441 -1.797,-0.622 -0.609,-0.192 -1.259,-0.331 -1.908,-0.46 l -0.997,-0.154 -1.03,-0.081 c -0.697,-0.026 -1.406,-0.022 -2.128,0.07 -0.717,0.077 -1.448,0.225 -2.16,0.452 -0.714,0.214 -1.413,0.52 -2.074,0.883 -0.664,0.36 -1.277,0.802 -1.852,1.277 -0.557,0.493 -1.08,1.017 -1.53,1.585 -0.458,0.564 -0.855,1.161 -1.2,1.777 -0.698,1.231 -1.175,2.54 -1.475,3.91 -0.144,0.69 -0.25,1.391 -0.275,2.143 -0.023,0.751 -0.004,1.526 0.204,2.447 l 3.267,-3.769 c -1.371,-0.12 -2.858,-0.064 -4.381,0.355 -1.517,0.397 -3.05,1.264 -4.218,2.469 -1.164,1.214 -1.93,2.686 -2.345,4.126 -0.436,1.449 -0.544,2.873 -0.512,4.238 0.085,2.735 0.807,5.246 1.83,7.561 0.252,0.564 0.549,1.159 0.865,1.748 l 0.408,0.721 c 0.253,0.424 0.444,0.705 0.693,1.033 0.961,1.249 2.099,2.187 3.24,2.917 2.3,1.46 4.644,2.271 6.953,2.915 2.315,0.631 4.614,1.039 6.906,1.347 2.291,0.302 4.574,0.492 6.853,0.604 1.14,0.055 2.278,0.091 3.419,0.107 1.15,0.015 2.26,0.015 3.467,-0.022 C 1.922,6.099 3.257,4.679 3.204,2.98 3.152,1.281 1.733,-0.053 0.034,-0.001 H 0.033 Z"
       style="fill:#000000;fill-opacity:1;fill-rule:nonzero;stroke:none"
       id="path140" /></g><g
     id="g142"
     transform="matrix(1.3333333,0,0,-1.3333333,707.49478,447.95188)"><path
       d="m 0,0 c 0,0 -0.422,-0.048 -1.213,-0.14 -0.799,-0.108 -1.975,-0.279 -3.461,-0.541 -2.958,-0.553 -7.203,-1.445 -11.905,-3.304 -2.351,-0.911 -4.806,-2.086 -7.138,-3.634 -2.347,-1.519 -4.546,-3.445 -6.345,-5.748 -1.809,-2.3 -3.079,-5.061 -3.799,-8.053 -0.736,-2.986 -0.858,-6.253 -0.529,-9.481 l 0.269,-2.637 0.133,-1.317 c 0.056,-0.421 0.146,-0.805 0.217,-1.208 0.146,-0.799 0.292,-1.596 0.439,-2.391 0.077,-0.397 0.131,-0.797 0.227,-1.191 l 0.338,-1.174 c 0.223,-0.783 0.446,-1.563 0.666,-2.338 0.204,-0.785 0.578,-1.483 0.851,-2.224 0.313,-0.72 0.553,-1.48 0.917,-2.158 0.365,-0.679 0.727,-1.353 1.086,-2.021 0.324,-0.694 0.779,-1.287 1.205,-1.893 0.438,-0.595 0.815,-1.235 1.289,-1.783 0.981,-1.069 1.868,-2.187 2.951,-3.068 2.007,-1.926 4.312,-3.324 6.48,-4.543 2.218,-1.159 4.344,-2.107 6.316,-2.814 1.944,-0.755 3.71,-1.313 5.166,-1.786 2.943,-0.942 4.623,-1.48 4.623,-1.48 0.912,-0.292 1.415,-1.267 1.123,-2.179 -0.274,-0.858 -1.164,-1.351 -2.025,-1.165 0,0 -1.734,0.381 -4.765,1.048 -0.76,0.168 -1.606,0.388 -2.527,0.622 -0.922,0.223 -1.92,0.498 -2.984,0.826 -2.128,0.619 -4.517,1.495 -7.074,2.643 -2.507,1.249 -5.236,2.737 -7.739,4.902 -1.327,0.99 -2.438,2.289 -3.646,3.539 -0.586,0.641 -1.07,1.378 -1.615,2.077 -0.532,0.711 -1.092,1.416 -1.508,2.212 -0.449,0.778 -0.903,1.562 -1.36,2.353 -0.458,0.791 -0.744,1.656 -1.126,2.492 -0.335,0.85 -0.773,1.682 -1.023,2.564 -0.267,0.878 -0.536,1.761 -0.806,2.646 l -0.401,1.334 c -0.118,0.451 -0.194,0.919 -0.292,1.38 -0.183,0.927 -0.367,1.856 -0.551,2.786 -0.085,0.463 -0.193,0.941 -0.259,1.392 l -0.135,1.316 -0.267,2.637 c -0.385,3.794 -0.26,7.693 0.665,11.472 0.924,3.763 2.698,7.315 5.044,10.185 2.361,2.869 5.203,5.046 8.02,6.709 2.841,1.651 5.7,2.752 8.356,3.576 5.344,1.582 9.905,2.03 13.08,2.168 1.59,0.071 2.841,0.051 3.697,0.018 C -0.903,2.606 -0.572,2.591 -0.35,2.581 -0.124,2.565 -0.008,2.559 -0.008,2.559 0.698,2.512 1.233,1.901 1.187,1.195 1.146,0.567 0.658,0.075 0.055,0.007 Z"
       style="fill:#000000;fill-opacity:1;fill-rule:nonzero;stroke:none"
       id="path144" /></g><g
     id="g146"
     transform="matrix(1.3333333,0,0,-1.3333333,663.37758,557.01307)"><path
       d="m 0,0 c 0.007,0.012 -0.045,-0.261 -0.059,-0.562 -0.022,-0.308 -0.048,-0.714 -0.047,-1.127 0,-0.202 -0.012,-0.413 -0.003,-0.589 0.019,-0.162 0.038,-0.314 0.053,-0.443 0.028,-0.25 0.045,-0.416 0.045,-0.416 L -0.007,-3.17 C 0.182,-4.9 -1.069,-6.456 -2.8,-6.645 c -1.731,-0.187 -3.286,1.063 -3.474,2.794 -0.05,0.457 0.006,0.917 0.14,1.328 0,0 0.096,0.29 0.239,0.725 0.075,0.214 0.161,0.462 0.253,0.729 0.1,0.248 0.218,0.482 0.33,0.73 0.218,0.488 0.47,0.966 0.661,1.319 0.189,0.365 0.305,0.524 0.307,0.538 0.419,1.199 1.732,1.832 2.931,1.413 C -0.214,2.512 0.419,1.199 0,0"
       style="fill:#000000;fill-opacity:1;fill-rule:nonzero;stroke:none"
       id="path148" /></g><g
     id="g150"
     transform="matrix(1.3333333,0,0,-1.3333333,641.24092,546.55988)"><path
       d="m 0,0 c 0,0 -0.021,-0.016 -0.062,-0.045 -0.051,-0.032 -0.096,-0.069 -0.12,-0.101 -0.084,-0.083 -0.203,-0.203 -0.345,-0.346 -0.171,-0.149 -0.322,-0.383 -0.508,-0.586 -0.139,-0.239 -0.331,-0.466 -0.438,-0.718 l -0.162,-0.363 c -0.069,-0.113 -0.091,-0.236 -0.111,-0.35 -0.029,-0.232 -0.15,-0.413 -0.117,-0.599 0.007,-0.354 -0.025,-0.562 -0.025,-0.562 L -1.95,-4.093 c -0.249,-1.688 -1.82,-2.855 -3.508,-2.605 -1.688,0.249 -2.855,1.819 -2.605,3.508 0.018,0.127 0.049,0.269 0.084,0.391 0,0 0.172,0.61 0.484,1.485 0.127,0.448 0.444,0.89 0.712,1.388 0.139,0.247 0.289,0.495 0.479,0.711 0.183,0.222 0.367,0.446 0.553,0.671 0.373,0.441 0.812,0.79 1.196,1.14 0.421,0.3 0.786,0.6 1.149,0.8 0.175,0.103 0.336,0.198 0.478,0.282 0.17,0.088 0.318,0.164 0.44,0.227 0.132,0.068 0.212,0.103 0.249,0.116 0.047,0.018 0.071,0.028 0.071,0.028 C -0.985,4.527 0.361,3.957 0.84,2.773 1.249,1.76 0.889,0.625 0.031,0.021 Z"
       style="fill:#000000;fill-opacity:1;fill-rule:nonzero;stroke:none"
       id="path152" /></g><g
     id="g154"
     transform="matrix(1.3333333,0,0,-1.3333333,623.89185,539.41668)"><path
       d="M 0,0 C 0,0 -13.59,-1.672 -19.617,2.305"
       style="fill:none;stroke:#000000;stroke-width:6.154;stroke-linecap:round;stroke-linejoin:round;stroke-miterlimit:10;stroke-dasharray:none;stroke-opacity:1"
       id="path156" /></g><g
     id="g158"
     transform="matrix(1.3333333,0,0,-1.3333333,633.84758,458.63934)"><path
       d="m 0,0 c -0.634,-2.447 -1.335,-4.926 -2.06,-7.358 -0.719,-2.442 -1.433,-4.887 -2.25,-7.299 -0.798,-2.418 -1.552,-4.851 -2.415,-7.252 -0.841,-2.409 -1.668,-4.821 -2.597,-7.202 l -2.82,-7.142 c -0.993,-2.367 -2.069,-4.714 -3.103,-7.074 l -0.8,-1.761 -0.924,-1.731 -1.851,-3.462 -0.928,-1.731 c -0.333,-0.601 -0.656,-1.099 -0.985,-1.654 -0.679,-1.107 -1.376,-2.215 -2.071,-3.295 -2.803,-4.339 -5.801,-8.552 -9.044,-12.608 -3.252,-4.051 -6.777,-7.915 -10.773,-11.458 -2.002,-1.767 -4.153,-3.434 -6.572,-4.891 -2.432,-1.411 -5.176,-2.749 -8.666,-2.892 -0.239,-0.004 -0.383,-0.022 -0.696,-0.011 l -0.474,0.019 -0.952,0.039 c -0.753,0.072 -1.519,0.114 -2.252,0.247 -1.469,0.235 -3.039,0.593 -4.654,1.47 -1.6,0.844 -3.169,2.42 -3.901,4.127 -0.768,1.69 -1.003,3.273 -1.15,4.684 v 0.003 l 4.763,-2.223 c -1.209,-0.771 -2.255,-1.18 -3.324,-1.545 -1.063,-0.354 -2.121,-0.618 -3.197,-0.815 -2.149,-0.383 -4.362,-0.536 -6.718,-0.184 -1.174,0.183 -2.391,0.502 -3.598,1.077 -0.603,0.289 -1.196,0.65 -1.763,1.073 -0.28,0.219 -0.549,0.464 -0.816,0.703 -0.253,0.261 -0.498,0.533 -0.736,0.808 -0.216,0.294 -0.433,0.59 -0.631,0.895 -0.176,0.314 -0.353,0.631 -0.512,0.952 l -0.391,0.981 -0.272,0.985 c -0.132,0.647 -0.24,1.301 -0.261,1.919 -0.057,0.637 -0.009,1.221 0.005,1.827 l 3.506,-3.26 c -0.807,-0.107 -1.616,-0.212 -2.45,-0.277 -0.835,-0.065 -1.678,-0.119 -2.562,-0.101 -0.433,-0.006 -0.881,0.014 -1.34,0.055 -0.448,0.021 -0.912,0.075 -1.39,0.159 -0.465,0.057 -0.953,0.172 -1.447,0.309 -0.481,0.106 -0.995,0.322 -1.494,0.523 -0.498,0.186 -1.009,0.531 -1.498,0.813 -0.472,0.366 -0.965,0.729 -1.372,1.184 -0.398,0.467 -0.816,0.935 -1.083,1.47 l -0.429,0.794 c -0.107,0.264 -0.198,0.532 -0.292,0.8 -0.086,0.267 -0.193,0.544 -0.25,0.805 l -0.143,0.779 c -0.042,0.258 -0.095,0.525 -0.12,0.777 l -0.034,0.735 c -0.022,0.492 -0.04,0.987 0.009,1.435 l 0.051,0.689 0.027,0.345 0.014,0.173 0.047,0.307 0.197,1.123 c 0.02,0.1 0.026,0.175 0.056,0.295 l 0.102,0.38 0.215,0.759 c 0.134,0.52 0.327,0.979 0.53,1.433 l 0.303,0.683 c 0.117,0.225 0.257,0.446 0.387,0.668 0.259,0.445 0.532,0.883 0.885,1.287 0.325,0.417 0.672,0.818 1.083,1.17 l 0.597,0.539 0.659,0.462 c 0.436,0.322 0.906,0.569 1.386,0.797 0.952,0.472 1.957,0.759 2.951,0.947 0.996,0.179 1.981,0.223 2.949,0.194 0.479,-0.027 0.951,-0.083 1.427,-0.13 l 1.387,-0.256 1.345,-0.369 1.301,-0.473 0.007,-0.002 -3.799,-1.258 2.313,3.917 c 0.799,1.305 1.503,2.589 2.249,3.881 0.735,1.291 1.499,2.573 2.122,3.898 l 1.991,3.928 c 0.613,1.332 1.15,2.7 1.731,4.046 0.547,1.363 1.206,2.674 1.622,4.098 l 1.403,4.201 c 0.471,1.399 0.959,2.79 1.307,4.242 l 1.153,4.313 c 0.375,1.44 0.793,2.868 1.134,4.321 l 1.802,8.806 c 0.292,1.47 0.636,2.927 0.835,4.423 0.223,1.488 0.465,2.973 0.73,4.456 0.547,2.963 1.187,5.913 2.144,8.835 l 0.025,0.075 c 0.331,1.013 1.421,1.564 2.433,1.233 0.791,-0.26 1.301,-0.986 1.327,-1.773 0.097,-3.086 -0.123,-6.145 -0.436,-9.19 -0.165,-1.521 -0.354,-3.04 -0.561,-4.555 -0.167,-1.521 -0.484,-3.029 -0.747,-4.54 l -1.641,-9.075 c -0.318,-1.507 -0.715,-3.005 -1.07,-4.51 l -1.095,-4.51 c -0.316,-1.514 -0.839,-2.986 -1.324,-4.468 l -1.459,-4.441 c -0.433,-1.496 -1.126,-2.917 -1.702,-4.372 -0.612,-1.443 -1.182,-2.906 -1.831,-4.33 l -2.133,-4.188 c -0.69,-1.415 -1.495,-2.732 -2.277,-4.069 -0.787,-1.328 -1.561,-2.696 -2.363,-3.969 l -2.413,-3.864 c -0.802,-1.283 -2.381,-1.786 -3.746,-1.279 l -0.054,0.022 -0.005,10e-4 -0.844,0.307 -0.855,0.235 -0.857,0.157 -0.845,0.077 c -0.554,0.012 -1.093,-0.011 -1.595,-0.103 -0.497,-0.099 -0.971,-0.229 -1.378,-0.44 -0.208,-0.098 -0.417,-0.195 -0.588,-0.339 l -0.281,-0.183 -0.242,-0.234 c -0.178,-0.134 -0.322,-0.315 -0.462,-0.501 -0.161,-0.163 -0.283,-0.376 -0.404,-0.59 -0.062,-0.106 -0.133,-0.204 -0.192,-0.315 l -0.151,-0.362 c -0.111,-0.241 -0.219,-0.481 -0.265,-0.702 l -0.106,-0.337 -0.059,-0.167 c -0.02,-0.063 -0.034,-0.179 -0.051,-0.266 l -0.197,-1.124 -0.053,-0.758 c -0.041,-0.31 -0.018,-0.576 -0.006,-0.843 l 0.01,-0.406 c 0.013,-0.125 0.045,-0.231 0.062,-0.348 l 0.053,-0.346 c 0.022,-0.109 0.071,-0.185 0.098,-0.279 l 0.084,-0.276 c 0.048,-0.066 0.089,-0.133 0.126,-0.204 0.051,-0.165 0.182,-0.239 0.259,-0.364 0.091,-0.117 0.238,-0.19 0.347,-0.308 0.183,-0.069 0.287,-0.197 0.509,-0.264 0.21,-0.073 0.39,-0.177 0.657,-0.225 0.24,-0.068 0.49,-0.134 0.783,-0.165 0.272,-0.052 0.562,-0.088 0.875,-0.1 0.299,-0.028 0.61,-0.044 0.939,-0.037 0.637,-0.015 1.315,0.028 1.996,0.08 0.683,0.053 1.383,0.145 2.084,0.236 1.7,0.221 3.257,-0.976 3.479,-2.676 0.016,-0.121 0.025,-0.242 0.026,-0.361 l 0.001,-0.223 c 0.003,-0.349 -0.04,-0.719 0,-1.034 0.005,-0.338 0.068,-0.627 0.117,-0.914 l 0.107,-0.397 c 0.052,-0.114 0.098,-0.229 0.139,-0.348 0.058,-0.103 0.116,-0.202 0.165,-0.308 0.067,-0.092 0.136,-0.179 0.193,-0.275 0.081,-0.08 0.155,-0.163 0.228,-0.25 l 0.27,-0.231 c 0.201,-0.143 0.422,-0.285 0.68,-0.409 0.517,-0.247 1.163,-0.434 1.872,-0.542 1.424,-0.223 3.077,-0.139 4.678,0.154 0.801,0.147 1.599,0.348 2.347,0.597 0.739,0.238 1.468,0.574 1.869,0.832 1.444,0.928 3.367,0.509 4.295,-0.936 0.252,-0.391 0.404,-0.818 0.465,-1.251 l 0.004,-0.036 v -0.002 c 0.138,-1.097 0.375,-2.04 0.687,-2.649 0.318,-0.607 0.645,-0.898 1.267,-1.25 0.619,-0.332 1.554,-0.574 2.579,-0.708 0.515,-0.09 1.017,-0.095 1.524,-0.147 l 0.946,-0.022 0.474,-0.011 0.253,0.021 c 1.611,0.065 3.627,0.918 5.529,2.053 1.916,1.165 3.79,2.605 5.575,4.197 3.587,3.177 6.867,6.86 9.995,10.669 3.126,3.818 6.056,7.832 8.797,11.967 0.686,1.041 1.349,2.069 2.007,3.113 0.323,0.53 0.693,1.093 0.976,1.596 l 0.882,1.609 1.767,3.216 0.885,1.607 0.798,1.685 c 1.068,2.247 2.175,4.47 3.214,6.74 l 2.978,6.899 2.857,6.975 c 0.983,2.314 1.862,4.676 2.787,7.019 l 2.724,7.054 2.674,7.076 10e-4,0.005 c 0.374,0.989 1.479,1.489 2.468,1.114 C -0.255,1.924 0.238,0.933 0,0"
       style="fill:#000000;fill-opacity:1;fill-rule:nonzero;stroke:none"
       id="path160" /></g><g
     id="g162"
     transform="matrix(1.3333333,0,0,-1.3333333,546.81639,556.26694)"><path
       d="M 0,0 C 0,0 -0.014,-0.021 -0.039,-0.062 -0.08,-0.118 -0.064,-0.124 -0.074,-0.157 -0.081,-0.188 -0.082,-0.2 -0.118,-0.295 c -0.03,-0.076 -0.064,-0.162 -0.1,-0.256 -0.054,-0.22 -0.155,-0.437 -0.202,-0.727 -0.064,-0.276 -0.125,-0.57 -0.147,-0.885 -0.05,-0.3 -0.059,-0.614 -0.055,-0.912 -0.011,-0.292 -0.013,-0.564 0.023,-0.808 0.042,-0.473 0.07,-0.79 0.07,-0.79 l 0.014,-0.169 c 0.15,-1.709 -1.114,-3.215 -2.823,-3.364 -1.709,-0.149 -3.216,1.114 -3.365,2.823 -0.021,0.237 -0.012,0.485 0.019,0.71 0,0 0.072,0.498 0.178,1.244 0.041,0.369 0.142,0.803 0.268,1.264 0.109,0.46 0.246,0.945 0.44,1.426 0.162,0.48 0.379,0.952 0.601,1.386 0.197,0.436 0.471,0.832 0.67,1.167 0.12,0.169 0.23,0.324 0.328,0.46 0.085,0.122 0.215,0.284 0.31,0.399 0.093,0.112 0.186,0.223 0.207,0.24 0.035,0.034 0.053,0.052 0.053,0.052 0.921,0.918 2.412,0.916 3.331,-0.006 0.79,-0.793 0.899,-2.01 0.324,-2.918 z"
       style="fill:#000000;fill-opacity:1;fill-rule:nonzero;stroke:none"
       id="path164" /></g><g
     id="g166"
     transform="matrix(1.3333333,0,0,-1.3333333,526.03319,547.63668)"><path
       d="M 0,0 C 0.016,0.002 -0.077,-0.015 -0.056,-0.021 -0.038,-0.023 -0.08,-0.044 -0.151,-0.074 -0.283,-0.142 -0.499,-0.235 -0.729,-0.405 -0.96,-0.568 -1.214,-0.776 -1.427,-1.046 -1.657,-1.296 -1.829,-1.624 -1.991,-1.951 -2.047,-2.14 -2.135,-2.295 -2.18,-2.487 -2.219,-2.686 -2.289,-2.851 -2.312,-3.05 -2.341,-3.243 -2.368,-3.431 -2.395,-3.608 -2.402,-3.8 -2.409,-3.98 -2.415,-4.147 c -0.035,-0.319 0.024,-0.641 0.02,-0.836 0.008,-0.204 0.013,-0.32 0.013,-0.32 l 0.007,-0.157 c 0.07,-1.708 -1.257,-3.149 -2.964,-3.22 -1.707,-0.07 -3.149,1.257 -3.22,2.964 -0.007,0.174 0.003,0.362 0.024,0.529 0,0 0.025,0.19 0.068,0.522 0.06,0.337 0.075,0.792 0.23,1.377 0.07,0.287 0.145,0.598 0.225,0.927 0.116,0.33 0.238,0.678 0.364,1.039 0.127,0.356 0.33,0.724 0.504,1.092 0.183,0.366 0.439,0.725 0.665,1.081 0.516,0.693 1.104,1.342 1.76,1.833 0.636,0.509 1.308,0.867 1.897,1.117 0.587,0.257 1.112,0.385 1.492,0.47 0.189,0.039 0.351,0.068 0.511,0.09 0.162,0.024 0.147,0.015 0.162,0.018 C 0.552,4.561 1.68,3.728 1.861,2.518 2.042,1.309 1.209,0.181 0,0"
       style="fill:#000000;fill-opacity:1;fill-rule:nonzero;stroke:none"
       id="path168" /></g><g
     id="g170"
     transform="matrix(1.3333333,0,0,-1.3333333,506.55799,512.96748)"><path
       d="M 0,0 C 0.006,0.002 -0.052,-0.026 -0.083,-0.055 -0.131,-0.091 -0.2,-0.143 -0.288,-0.208 -0.481,-0.355 -0.765,-0.575 -1.077,-0.873 -1.71,-1.452 -2.437,-2.339 -2.92,-3.288 -3.055,-3.517 -3.146,-3.769 -3.249,-4.001 -3.36,-4.229 -3.411,-4.483 -3.493,-4.704 -3.576,-4.925 -3.6,-5.164 -3.655,-5.369 -3.711,-5.573 -3.726,-5.783 -3.749,-5.968 -3.808,-6.333 -3.804,-6.65 -3.808,-6.866 c -0.005,-0.215 -0.009,-0.337 -0.009,-0.337 -0.05,-1.715 -1.48,-3.066 -3.195,-3.016 -1.716,0.049 -3.066,1.48 -3.016,3.196 0.006,0.21 0.032,0.415 0.078,0.612 l 0.091,0.378 c 0,0 0.048,0.203 0.132,0.559 0.086,0.357 0.201,0.867 0.427,1.463 0.106,0.3 0.213,0.626 0.375,0.955 0.159,0.329 0.297,0.692 0.504,1.035 0.205,0.341 0.389,0.715 0.637,1.052 0.24,0.343 0.475,0.7 0.753,1.02 1.066,1.325 2.371,2.39 3.44,3.053 0.529,0.339 1.004,0.585 1.359,0.757 0.171,0.082 0.329,0.155 0.475,0.214 0.1,0.04 0.153,0.062 0.153,0.062 C -0.473,4.596 0.817,4.05 1.276,2.918 1.71,1.847 1.245,0.634 0.233,0.118 Z"
       style="fill:#000000;fill-opacity:1;fill-rule:nonzero;stroke:none"
       id="path172" /></g><g
     id="g174"
     transform="matrix(1.3333333,0,0,-1.3333333,495.32092,375.99735)"><path
       d="m 0,0 c 0,0 0.052,-0.291 0.15,-0.835 0.105,-0.539 0.26,-1.33 0.456,-2.337 0.213,-1.019 0.444,-2.258 0.78,-3.675 0.329,-1.416 0.701,-3.013 1.108,-4.756 0.39,-1.745 0.906,-3.62 1.415,-5.605 0.561,-1.975 1.152,-4.057 1.764,-6.211 0.311,-1.075 0.628,-2.169 0.948,-3.275 0.352,-1.098 0.708,-2.208 1.066,-3.328 0.69,-2.249 1.523,-4.489 2.324,-6.739 0.726,-2.278 1.627,-4.492 2.419,-6.71 0.815,-2.208 1.752,-4.327 2.586,-6.41 0.402,-1.049 0.895,-2.035 1.308,-3.033 0.426,-0.994 0.841,-1.966 1.246,-2.912 0.778,-1.911 1.647,-3.652 2.417,-5.278 0.385,-0.815 0.753,-1.595 1.104,-2.336 0.335,-0.752 0.65,-1.466 0.991,-2.114 0.657,-1.31 1.231,-2.452 1.703,-3.393 0.938,-1.888 1.446,-2.99 1.446,-2.99 l 0.143,-0.309 c 0.575,-1.246 0.031,-2.723 -1.215,-3.298 -1.161,-0.536 -2.529,-0.09 -3.174,0.981 0,0 -0.635,1.061 -1.745,2.918 -0.555,0.93 -1.23,2.058 -2.003,3.352 -0.786,1.287 -1.547,2.81 -2.425,4.443 -0.863,1.642 -1.835,3.403 -2.721,5.334 -0.897,1.926 -1.929,3.918 -2.838,6.05 -0.902,2.134 -1.91,4.309 -2.794,6.575 -0.86,2.275 -1.838,4.547 -2.626,6.891 -0.795,2.339 -1.622,4.668 -2.303,7.003 -0.354,1.163 -0.705,2.316 -1.052,3.457 -0.315,1.148 -0.627,2.284 -0.933,3.401 -0.641,2.225 -1.113,4.416 -1.634,6.474 -0.45,2.076 -0.907,4.03 -1.244,5.856 -0.173,0.912 -0.338,1.786 -0.496,2.616 -0.132,0.837 -0.258,1.63 -0.377,2.376 -0.245,1.489 -0.398,2.804 -0.545,3.881 -0.125,1.086 -0.226,1.934 -0.279,2.547 l -0.078,0.899 c -0.124,1.409 0.918,2.653 2.328,2.777 1.329,0.116 2.509,-0.803 2.745,-2.089 z"
       style="fill:#000000;fill-opacity:1;fill-rule:nonzero;stroke:none"
       id="path176" /></g><g
     id="g178"
     transform="matrix(1.3333333,0,0,-1.3333333,442.89519,300.98828)"><path
       d="m 0,0 c 0,0 0.074,-0.174 0.203,-0.479 0.125,-0.298 0.294,-0.72 0.485,-1.232 0.384,-1.023 0.847,-2.406 1.191,-3.892 0.178,-0.737 0.314,-1.51 0.402,-2.273 0.056,-0.37 0.063,-0.769 0.086,-1.133 0.032,-0.356 -0.005,-0.753 -0.01,-1.09 10e-4,-0.332 -0.073,-0.701 -0.112,-0.999 -0.036,-0.296 -0.102,-0.58 -0.182,-0.828 -0.151,-0.48 -0.237,-0.755 -0.237,-0.755 -0.525,-1.671 -2.305,-2.599 -3.976,-2.075 -1.67,0.525 -2.6,2.305 -2.075,3.976 0.022,0.068 0.045,0.135 0.071,0.201 l 0.205,0.522 c 0,0 0.019,0.048 0.078,0.126 0.034,0.028 0.073,0.089 0.105,0.203 0.031,0.11 0.099,0.191 0.126,0.371 0.029,0.171 0.098,0.321 0.115,0.55 0.023,0.221 0.072,0.438 0.077,0.705 0.035,0.511 0.044,1.095 0.007,1.7 -0.057,1.206 -0.237,2.472 -0.411,3.411 -0.086,0.47 -0.167,0.861 -0.226,1.128 -0.058,0.26 -0.092,0.409 -0.092,0.409 l -0.023,0.103 c -0.269,1.191 0.479,2.375 1.67,2.644 C -1.463,1.533 -0.409,0.966 0,0"
       style="fill:#000000;fill-opacity:1;fill-rule:nonzero;stroke:none"
       id="path180" /></g><g
     id="g182"
     transform="matrix(1.3333333,0,0,-1.3333333,444.59706,282.04362)"><path
       d="M 0,0 C 0,0 0.056,0.006 0.16,0.018 0.276,0.027 0.447,0.041 0.664,0.058 1.074,0.089 1.642,0.104 2.33,0.096 3.017,0.068 3.822,0.031 4.693,-0.115 5.129,-0.17 5.581,-0.276 6.042,-0.38 c 0.46,-0.102 0.929,-0.266 1.399,-0.409 0.464,-0.193 0.939,-0.353 1.39,-0.591 0.449,-0.246 0.906,-0.454 1.313,-0.759 0.413,-0.286 0.82,-0.556 1.16,-0.891 0.345,-0.324 0.697,-0.61 0.951,-0.946 0.266,-0.327 0.509,-0.628 0.725,-0.894 0.179,-0.291 0.334,-0.545 0.462,-0.753 0.248,-0.427 0.39,-0.671 0.39,-0.671 0.858,-1.478 0.356,-3.373 -1.122,-4.231 -1.478,-0.859 -3.373,-0.357 -4.231,1.121 -0.083,0.142 -0.152,0.287 -0.21,0.435 l -0.101,0.265 c 0,0 -0.044,0.117 -0.122,0.32 -0.035,0.106 -0.078,0.234 -0.128,0.382 -0.077,0.129 -0.16,0.28 -0.248,0.451 -0.069,0.184 -0.225,0.33 -0.352,0.518 -0.116,0.196 -0.307,0.36 -0.487,0.548 -0.165,0.202 -0.414,0.354 -0.634,0.543 -0.224,0.186 -0.509,0.327 -0.765,0.505 -0.289,0.138 -0.566,0.304 -0.87,0.428 C 4.257,-4.886 3.96,-4.752 3.649,-4.66 3.042,-4.443 2.434,-4.312 1.914,-4.198 1.391,-4.103 0.945,-4.037 0.645,-4.009 0.507,-3.995 0.399,-3.984 0.326,-3.976 0.24,-3.971 0.194,-3.969 0.194,-3.969 L 0.112,-3.964 C -0.985,-3.901 -1.824,-2.96 -1.761,-1.863 -1.704,-0.881 -0.945,-0.107 0,0"
       style="fill:#000000;fill-opacity:1;fill-rule:nonzero;stroke:none"
       id="path184" /></g><g
     id="g186"
     transform="matrix(1.3333333,0,0,-1.3333333,610.89065,225.52802)"><path
       d="m 0,0 -2.634,-0.188 -2.599,-0.433 c -0.855,-0.2 -1.696,-0.457 -2.546,-0.676 -0.833,-0.277 -1.645,-0.616 -2.471,-0.914 -0.802,-0.357 -1.578,-0.77 -2.372,-1.145 -0.763,-0.436 -1.5,-0.916 -2.255,-1.366 l -2.116,-1.573 -1.959,-1.767 -1.78,-1.947 -1.588,-2.106 c -0.455,-0.751 -0.939,-1.487 -1.381,-2.245 -0.382,-0.791 -0.798,-1.566 -1.162,-2.365 -0.304,-0.824 -0.647,-1.634 -0.932,-2.464 -0.225,-0.849 -0.486,-1.688 -0.693,-2.541 l -0.451,-2.597 -0.207,-2.632 -0.016,-0.202 c -0.124,-1.575 -1.447,-2.773 -2.999,-2.784 l -1.183,-0.005 c -0.527,0.011 -0.888,0.069 -1.34,0.102 -0.859,0.088 -1.718,0.141 -2.569,0.263 -1.692,0.338 -3.388,0.597 -5.022,1.131 -3.284,0.964 -6.431,2.379 -9.271,4.251 -2.842,1.86 -5.451,4.084 -7.632,6.682 -2.182,2.585 -4.065,5.445 -5.41,8.565 -1.315,3.147 -2.236,6.353 -2.627,9.9 -0.1,0.847 -0.1,1.592 -0.161,2.392 l -0.069,1.304 0.052,1.27 c 0.051,0.845 0.039,1.697 0.149,2.538 l 0.365,2.521 c 0.653,3.331 1.719,6.595 3.3,9.617 1.61,3.002 3.638,5.771 6.017,8.217 2.424,2.404 5.201,4.437 8.202,6.072 3.019,1.642 6.273,2.695 9.678,3.387 l 2.641,0.407 c 0.818,0.073 1.583,0.098 2.378,0.149 l 0.591,0.035 0.295,0.016 0.074,0.005 0.175,0.004 0.04,-10e-4 0.161,-0.006 1.283,-0.055 c 0.854,-0.06 1.716,-0.025 2.563,-0.17 3.419,-0.352 6.751,-1.329 9.914,-2.661 3.177,-1.334 6.063,-3.28 8.686,-5.494 2.641,-2.214 4.86,-4.906 6.693,-7.82 0.962,-1.437 1.678,-3.011 2.435,-4.565 0.606,-1.615 1.28,-3.215 1.657,-4.907 C 2.407,11.577 2.618,9.723 2.889,7.957 L 3.024,5.595 3.058,5.004 3.066,4.856 3.07,4.783 3.074,4.52 3.072,4.483 3.06,4.188 3.007,3.006 C 2.936,1.393 1.662,0.117 0.089,0.006 Z m -3.169,5.937 -0.103,1.708 c -0.261,1.339 -0.37,2.627 -0.813,4.019 -0.304,1.389 -0.883,2.69 -1.371,4.017 -0.639,1.265 -1.215,2.559 -2.019,3.73 -1.517,2.376 -3.294,4.622 -5.465,6.444 -2.147,1.828 -4.499,3.46 -7.107,4.565 -2.595,1.103 -5.322,1.939 -8.14,2.243 -0.696,0.132 -1.412,0.092 -2.116,0.151 l -1.06,0.058 -0.133,0.007 -0.033,0.002 c 0.319,0.009 0.067,10e-4 0.129,0.003 l -0.074,-0.004 -0.296,-0.015 -0.59,-0.029 c -0.779,-0.045 -1.597,-0.067 -2.342,-0.13 l -1.973,-0.315 c -2.696,-0.539 -5.474,-1.39 -7.954,-2.732 -2.487,-1.341 -4.803,-3.006 -6.832,-4.985 -1.977,-2.029 -3.68,-4.307 -5.101,-6.761 -1.387,-2.483 -2.297,-5.191 -2.968,-7.959 l -0.39,-2.107 c -0.125,-0.704 -0.131,-1.424 -0.206,-2.138 l -0.092,-1.074 0.019,-1.036 c 0.03,-0.771 0.008,-1.619 0.08,-2.326 0.226,-2.67 0.928,-5.604 1.976,-8.285 1.115,-2.687 2.705,-5.159 4.551,-7.413 l 1.456,-1.635 1.635,-1.457 c 0.52,-0.516 1.158,-0.886 1.73,-1.336 l 0.88,-0.648 c 0.305,-0.2 0.625,-0.375 0.937,-0.564 0.635,-0.356 1.231,-0.781 1.892,-1.085 0.662,-0.306 1.315,-0.626 1.981,-0.915 0.672,-0.275 1.378,-0.464 2.061,-0.703 0.346,-0.106 0.682,-0.245 1.036,-0.325 l 1.061,-0.233 c 0.711,-0.132 1.399,-0.371 2.124,-0.416 l 2.152,-0.215 c 0.718,-0.03 1.442,0.004 2.158,-0.002 0.337,0.006 0.763,-0.01 1.025,0.025 l 1.18,0.142 -3.015,-2.985 0.251,3.208 c 0.161,1.06 0.364,2.116 0.551,3.173 0.25,1.043 0.563,2.073 0.849,3.108 0.344,1.016 0.757,2.01 1.139,3.014 0.442,0.977 0.945,1.928 1.421,2.89 0.536,0.929 1.122,1.83 1.688,2.743 0.628,0.869 1.289,1.716 1.938,2.57 l 2.173,2.376 2.39,2.155 c 0.859,0.644 1.709,1.302 2.584,1.922 0.916,0.558 1.82,1.14 2.753,1.669 0.966,0.469 1.919,0.967 2.902,1.401 1.006,0.375 2.002,0.782 3.021,1.118 1.037,0.278 2.069,0.585 3.114,0.826 1.058,0.18 2.115,0.376 3.177,0.529 z"
       style="fill:#000000;fill-opacity:1;fill-rule:nonzero;stroke:none"
       id="path188" /></g><g
     id="g190"
     transform="matrix(1.3333333,0,0,-1.3333333,518.11332,463.28388)"><path
       d="m 0,0 c -0.407,-0.167 -0.958,-0.456 -1.416,-0.753 -0.473,-0.305 -0.917,-0.651 -1.329,-1.022 -0.419,-0.367 -0.777,-0.784 -1.116,-1.206 -0.318,-0.437 -0.624,-0.88 -0.848,-1.365 -0.246,-0.472 -0.42,-0.977 -0.573,-1.488 -0.071,-0.257 -0.116,-0.524 -0.179,-0.783 l -0.108,-0.807 c -0.037,-0.547 -0.053,-1.098 -0.012,-1.661 -0.002,-0.277 0.058,-0.564 0.086,-0.846 0.027,-0.282 0.071,-0.566 0.139,-0.851 0.097,-0.569 0.259,-1.138 0.422,-1.707 0.175,-0.568 0.38,-1.134 0.598,-1.698 0.249,-0.558 0.452,-1.125 0.744,-1.674 0.274,-0.553 0.537,-1.108 0.857,-1.648 0.303,-0.544 0.605,-1.088 0.952,-1.617 0.336,-0.532 0.658,-1.069 1.032,-1.586 0.368,-0.518 0.704,-1.051 1.097,-1.557 l 1.151,-1.53 10e-4,-0.001 0.099,-0.146 c 0.804,-1.183 0.497,-2.793 -0.685,-3.598 -0.481,-0.327 -1.034,-0.47 -1.574,-0.445 -4.077,0.185 -7.929,0.592 -11.666,0.45 -1.855,-0.071 -3.665,-0.279 -5.296,-0.746 -1.615,-0.486 -3.004,-1.236 -3.913,-2.348 -0.453,-0.558 -0.799,-1.211 -1.053,-1.939 -0.271,-0.721 -0.371,-1.553 -0.45,-2.392 l -0.021,-0.645 -0.01,-0.278 0.012,-0.371 0.025,-0.741 0.057,-0.624 c 0.088,-0.837 0.232,-1.715 0.497,-2.446 0.257,-0.743 0.614,-1.376 1.069,-1.81 0.444,-0.449 0.999,-0.722 1.685,-0.857 0.691,-0.123 1.492,-0.088 2.309,0.081 0.796,0.159 1.696,0.473 2.374,0.803 l 10e-4,10e-4 c 0.488,0.555 1.333,0.609 1.888,0.121 0.304,-0.268 0.458,-0.644 0.453,-1.02 l -0.015,-0.927 c -0.002,-0.143 -0.026,-0.438 -0.019,-0.67 10e-4,-0.248 0.019,-0.493 0.048,-0.736 0.019,-0.244 0.085,-0.476 0.119,-0.709 0.074,-0.222 0.123,-0.449 0.205,-0.656 0.101,-0.198 0.157,-0.414 0.275,-0.589 0.124,-0.171 0.196,-0.368 0.339,-0.514 0.144,-0.144 0.242,-0.313 0.396,-0.439 l 0.448,-0.373 c 0.182,-0.098 0.355,-0.197 0.521,-0.3 0.157,-0.11 0.395,-0.156 0.579,-0.242 0.191,-0.081 0.381,-0.162 0.619,-0.199 l 0.66,-0.155 c 0.221,-0.049 0.483,-0.052 0.719,-0.082 0.244,-0.02 0.475,-0.057 0.722,-0.071 l 1.537,0.014 c 1.693,0.014 3.077,-1.347 3.092,-3.04 0.015,-1.694 -1.346,-3.078 -3.04,-3.092 -0.115,-10e-4 -0.229,0.004 -0.341,0.015 l -0.062,0.007 -2.143,0.235 c -0.363,0.062 -0.736,0.157 -1.104,0.238 -0.37,0.094 -0.732,0.154 -1.106,0.281 l -1.127,0.422 c -0.373,0.125 -0.746,0.324 -1.118,0.54 -0.368,0.223 -0.746,0.389 -1.095,0.674 -0.352,0.274 -0.699,0.556 -1.038,0.846 -0.317,0.327 -0.62,0.676 -0.917,1.025 -0.292,0.352 -0.515,0.764 -0.761,1.152 -0.245,0.392 -0.391,0.822 -0.577,1.238 -0.177,0.419 -0.266,0.846 -0.389,1.274 -0.102,0.426 -0.153,0.85 -0.218,1.276 -0.023,0.418 -0.069,0.843 -0.056,1.256 0.002,0.415 0.024,0.828 0.072,1.241 0.055,0.443 0.095,0.765 0.245,1.37 l 4.462,-3.503 -0.007,-0.003 c -0.703,-0.362 -1.186,-0.546 -1.791,-0.764 -0.581,-0.201 -1.173,-0.376 -1.796,-0.507 -1.238,-0.262 -2.6,-0.383 -4.069,-0.148 -1.463,0.235 -3.025,0.94 -4.152,2.042 -1.152,1.082 -1.838,2.382 -2.276,3.593 -0.448,1.237 -0.635,2.377 -0.77,3.567 l -0.081,0.901 -0.025,0.741 -0.013,0.372 -0.003,0.172 0.002,0.109 0.005,0.219 0.023,0.873 c 0.095,1.177 0.237,2.381 0.657,3.592 0.398,1.202 1.002,2.39 1.825,3.422 0.821,1.037 1.846,1.871 2.908,2.51 1.067,0.641 2.178,1.094 3.276,1.431 2.201,0.643 4.354,0.873 6.446,0.962 4.178,0.164 8.193,-0.267 12.044,-0.44 l -1.702,-3.3 -0.001,0.001 -1.188,1.687 c -0.402,0.556 -0.758,1.154 -1.138,1.729 -0.384,0.573 -0.727,1.181 -1.079,1.781 -0.361,0.592 -0.683,1.214 -1.004,1.839 -0.335,0.612 -0.622,1.26 -0.914,1.904 -0.307,0.634 -0.537,1.318 -0.802,1.978 -0.237,0.677 -0.46,1.365 -0.65,2.065 -0.18,0.708 -0.353,1.417 -0.458,2.154 -0.069,0.362 -0.115,0.732 -0.142,1.108 -0.027,0.375 -0.083,0.744 -0.074,1.126 -0.027,0.757 0.016,1.525 0.1,2.292 0.064,0.383 0.12,0.768 0.196,1.15 0.099,0.379 0.184,0.762 0.301,1.136 0.247,0.747 0.541,1.483 0.926,2.173 0.364,0.702 0.828,1.343 1.316,1.955 0.506,0.596 1.044,1.165 1.64,1.656 0.591,0.498 1.215,0.947 1.874,1.341 0.676,0.395 1.309,0.724 2.148,1.028 C -0.255,3.854 0.808,3.357 1.158,2.396 1.498,1.457 1.035,0.424 0.12,0.049 Z"
       style="fill:#000000;fill-opacity:1;fill-rule:nonzero;stroke:none"
       id="path192" /></g><g
     id="g194"
     transform="matrix(1.3333333,0,0,-1.3333333,463.72332,300.47335)"><path
       d="m 0,0 c 0,0 0.264,0.04 0.784,0.074 0.517,0.03 1.242,0.083 2.098,0.097 1.721,0.04 4.01,-0.037 6.295,-0.28 0.571,-0.072 1.142,-0.143 1.704,-0.214 0.561,-0.064 1.112,-0.154 1.646,-0.261 1.068,-0.207 2.057,-0.387 2.903,-0.623 1.691,-0.476 2.791,-0.858 2.791,-0.858 1.246,-0.435 1.904,-1.796 1.47,-3.043 -0.358,-1.028 -1.347,-1.656 -2.382,-1.6 l -0.165,0.009 c 0,0 -1.084,0.058 -2.67,0.245 -0.793,0.094 -1.741,0.151 -2.736,0.276 -1.004,0.101 -2.075,0.209 -3.147,0.317 -2.155,0.214 -4.311,0.427 -5.927,0.587 -0.803,0.091 -1.471,0.167 -1.939,0.22 -0.476,0.059 -0.748,0.093 -0.748,0.093 -1.369,0.17 -2.34,1.419 -2.17,2.787 0.141,1.135 1.025,1.998 2.103,2.161 z"
       style="fill:#000000;fill-opacity:1;fill-rule:nonzero;stroke:none"
       id="path196" /></g><g
     id="g198"
     transform="matrix(1.3333333,0,0,-1.3333333,495.46879,397.41668)"><path
       d="m 0,0 c -2.406,-0.526 -4.685,-0.83 -7.04,-1.019 -2.339,-0.195 -4.686,-0.29 -7.039,-0.28 -4.699,0.085 -9.413,0.571 -14.064,1.528 -2.325,0.474 -4.648,1.03 -6.907,1.805 -2.272,0.734 -4.504,1.608 -6.689,2.598 -2.2,0.961 -4.309,2.125 -6.397,3.325 -2.048,1.267 -4.077,2.58 -5.974,4.077 -0.483,0.383 -0.949,0.701 -1.446,1.139 l -1.293,1.103 c -0.856,0.723 -1.778,1.589 -2.659,2.38 -1.71,1.636 -3.409,3.291 -4.99,5.076 -3.205,3.52 -6.085,7.406 -8.489,11.621 -2.407,4.213 -4.23,8.826 -5.274,13.642 -1.047,4.812 -1.301,9.812 -0.736,14.68 0.538,4.879 1.89,9.594 3.722,14.035 0.954,2.202 1.97,4.373 3.151,6.437 0.562,1.05 1.188,2.057 1.807,3.067 l 0.501,0.807 0.472,0.707 c 0.283,0.445 0.722,1.022 1.086,1.53 2.99,3.987 6.841,7.34 11.206,9.705 4.354,2.387 9.142,3.812 13.96,4.402 4.827,0.591 9.688,0.376 14.447,-0.478 2.378,-0.453 4.734,-1.075 7.036,-1.962 2.299,-0.89 4.559,-1.999 6.681,-3.6 1.058,-0.802 2.08,-1.756 2.981,-2.956 0.885,-1.196 1.668,-2.751 1.818,-4.602 0.022,-0.46 0.03,-0.924 -0.031,-1.386 l -0.04,-0.345 -0.05,-0.277 -0.077,-0.418 -0.081,-0.427 -0.115,-0.507 c -0.077,-0.34 -0.159,-0.675 -0.256,-0.99 -0.365,-1.277 -0.874,-2.583 -1.651,-3.847 -0.767,-1.257 -1.871,-2.467 -3.217,-3.354 -1.346,-0.892 -2.894,-1.408 -4.337,-1.619 -2.909,-0.432 -5.504,0.076 -7.675,0.399 l 3.375,4.146 10e-4,-0.004 c 1.084,-2.886 1.577,-5.728 1.714,-8.673 0.058,-1.469 0.007,-2.961 -0.206,-4.48 -0.219,-1.516 -0.598,-3.07 -1.299,-4.619 -0.691,-1.535 -1.776,-3.098 -3.331,-4.266 -1.549,-1.175 -3.478,-1.799 -5.234,-1.931 -1.77,-0.141 -3.406,0.097 -4.905,0.475 -1.506,0.379 -2.89,0.913 -4.213,1.504 l 4.308,2.327 c -0.353,-1.951 -1.323,-3.794 -2.636,-5.163 -1.318,-1.371 -2.903,-2.326 -4.55,-2.925 -1.652,-0.59 -3.379,-0.86 -5.099,-0.784 -1.719,0.06 -3.436,0.478 -5.015,1.231 -0.786,0.386 -1.531,0.86 -2.216,1.406 -0.675,0.527 -1.325,1.218 -1.804,1.832 -0.325,0.404 -0.566,0.79 -0.799,1.177 -0.221,0.405 -0.426,0.817 -0.591,1.252 -0.333,0.865 -0.526,1.783 -0.582,2.683 -0.112,1.81 0.289,3.5 0.895,4.984 0.306,0.746 0.664,1.452 1.064,2.124 0.418,0.687 0.808,1.275 1.386,1.978 0.686,0.834 1.919,0.954 2.754,0.268 0.775,-0.638 0.934,-1.747 0.402,-2.571 l -0.114,-0.177 c -0.255,-0.396 -0.586,-0.984 -0.825,-1.504 -0.25,-0.539 -0.459,-1.089 -0.618,-1.633 -0.324,-1.09 -0.406,-2.157 -0.248,-3.05 0.07,-0.449 0.202,-0.859 0.391,-1.24 0.093,-0.191 0.211,-0.372 0.327,-0.553 0.139,-0.181 0.273,-0.357 0.381,-0.463 0.042,-0.058 0.547,-0.57 0.555,-0.541 0.183,-0.159 0.376,-0.303 0.576,-0.435 0.401,-0.263 0.826,-0.485 1.274,-0.659 1.792,-0.686 3.987,-0.56 5.713,0.253 0.86,0.402 1.578,0.969 2.062,1.583 0.239,0.31 0.414,0.633 0.538,0.957 0.134,0.326 0.284,0.598 0.699,0.924 l 3.158,2.486 c 0.35,0.275 0.856,0.215 1.131,-0.135 l 0.019,-0.025 c 2.118,-0.961 4.353,-1.603 6.067,-1.453 0.852,0.073 1.506,0.315 2.058,0.723 0.547,0.413 1.04,1.045 1.422,1.895 0.777,1.698 1.05,4.016 0.956,6.299 -0.095,2.288 -0.535,4.676 -1.304,6.698 l -0.001,0.003 -0.058,0.163 c -0.554,1.582 0.279,3.313 1.86,3.866 0.519,0.182 1.068,0.212 1.573,0.117 2.275,-0.435 4.216,-0.779 5.826,-0.575 1.587,0.21 2.626,0.801 3.471,2.147 0.414,0.665 0.756,1.482 1.014,2.38 0.073,0.226 0.124,0.441 0.173,0.654 l 0.08,0.321 0.078,0.407 0.079,0.417 0.019,0.105 0.01,0.052 c -0.002,-0.013 0.019,0.103 -0.002,-0.016 l 0.004,0.077 c 0.021,0.101 0.007,0.205 0.013,0.31 -0.032,0.421 -0.243,0.996 -0.7,1.615 -0.458,0.614 -1.088,1.243 -1.835,1.808 -1.493,1.142 -3.327,2.082 -5.246,2.829 -1.924,0.753 -3.965,1.303 -6.035,1.707 -4.148,0.812 -8.46,0.874 -12.617,0.27 -4.161,-0.601 -8.183,-1.913 -11.739,-3.967 -3.566,-2.034 -6.638,-4.839 -9.018,-8.154 -1.14,-1.603 -2.279,-3.567 -3.271,-5.447 -1.031,-1.893 -1.891,-3.855 -2.699,-5.825 -1.534,-3.968 -2.607,-8.076 -2.97,-12.224 -0.387,-4.144 -0.078,-8.311 0.888,-12.335 0.97,-4.026 2.605,-7.892 4.675,-11.554 2.099,-3.65 4.652,-7.089 7.558,-10.258 1.429,-1.604 2.986,-3.108 4.553,-4.6 0.811,-0.717 1.536,-1.408 2.413,-2.145 l 1.297,-1.098 c 0.356,-0.309 0.808,-0.657 1.207,-0.985 1.626,-1.357 3.381,-2.551 5.154,-3.715 1.815,-1.101 3.65,-2.184 5.585,-3.084 1.919,-0.929 3.892,-1.762 5.916,-2.472 2.021,-0.715 4.067,-1.386 6.155,-1.94 4.167,-1.143 8.48,-1.829 12.826,-2.225 4.323,-0.447 8.812,-0.484 13.045,-0.183 l 0.11,0.008 C 0.589,4.458 1.648,3.54 1.735,2.32 1.814,1.208 1.058,0.23 0,0"
       style="fill:#000000;fill-opacity:1;fill-rule:nonzero;stroke:none"
       id="path200" /></g></svg>
