<?xml version="1.0" encoding="UTF-8" standalone="no"?>
<!-- Created with Inkscape (http://www.inkscape.org/) -->

<svg
   version="1.1"
   id="svg2"
   xml:space="preserve"
   width="1066.6667"
   height="754.66669"
   viewBox="0 0 1066.6667 754.66669"
   sodipodi:docname="w.svg"
   inkscape:version="1.1 (c4e8f9ed74, 2021-05-24)"
   xmlns:inkscape="http://www.inkscape.org/namespaces/inkscape"
   xmlns:sodipodi="http://sodipodi.sourceforge.net/DTD/sodipodi-0.dtd"
   xmlns="http://www.w3.org/2000/svg"
   xmlns:svg="http://www.w3.org/2000/svg"><sodipodi:namedview
     id="namedview56"
     pagecolor="#ffffff"
     bordercolor="#666666"
     borderopacity="1.0"
     inkscape:pageshadow="2"
     inkscape:pageopacity="0.0"
     inkscape:pagecheckerboard="0"
     showgrid="false"
     inkscape:zoom="1.4110903"
     inkscape:cx="597.05607"
     inkscape:cy="383.03716"
     inkscape:window-width="1600"
     inkscape:window-height="1144"
     inkscape:window-x="1600"
     inkscape:window-y="20"
     inkscape:window-maximized="1"
     inkscape:current-layer="g122" /><defs
     id="defs6"><clipPath
       clipPathUnits="userSpaceOnUse"
       id="clipPath16"><path
         d="M 0,566 H 800 V 0 H 0 Z"
         id="path14" /></clipPath></defs><g
     id="g602"><g
       id="g102"
       transform="matrix(1.3333333,0,0,-1.3333333,649.17318,262.57815)"><path
         id="path104"
         style="fill:#000000;fill-opacity:1;fill-rule:nonzero;stroke:none"
         d="m -28.259766,-33.357422 c -4.44012,0.285814 -8.883095,1.174876 -12.919922,3.095703 -5.834204,2.689215 -10.914158,7.005679 -14.421069,12.396774 -4.426433,6.636422 -6.318346,14.8998807 -5.241707,22.8019721 1.13068,8.7964479 6.03502,16.9884639 13.162474,22.2450169 6.741458,5.054458 15.44201,7.359876 23.803698,6.356264 8.122512,-0.897559 15.9157978,-4.86891 21.2249545,-11.112997 C 2.0436699,16.994425 4.8165164,10.018056 5.4785156,2.8945312 5.7149897,-0.45817449 5.7051029,-3.8385315 5.3809085,-7.1847161 5.0739427,-10.288463 4.075294,-13.294951 2.5239514,-15.997216 -0.97222581,-22.381142 -6.551093,-27.637267 -13.256457,-30.519452 c -4.646047,-2.046379 -9.747055,-2.982561 -14.816098,-2.843383 -0.06243,3.11e-4 -0.12515,-0.0043 -0.187211,0.0054 z m -0.0293,4.605469 c 4.241411,-0.09866 5.212195,0.03657 7.876953,1.134765 -0.03906,-0.720052 0.03906,0.720053 0,0 5.708162,1.651421 10.8718528,5.14887 14.4921871,9.865235 1.1614944,1.474107 2.2720195,3.236988 3.1117468,5.003101 3.60509692,7.4260911 3.71954026,16.4345965 0.2814037,23.94226 -2.8581575,6.420151 -8.2070656,11.642708 -14.6490096,14.431592 -7.925168,3.568115 -17.486463,3.036127 -25.038152,-1.229275 -0.9156,-0.513843 -2.078527,-1.242691 -3.019847,-1.953794 -6.671045,-4.882039 -10.998476,-12.8094941 -11.437435,-21.0700812 -0.342626,-5.3291584 0.824203,-10.7674575 3.443594,-15.4320278 3.709098,-6.772453 10.259468,-11.974732 17.787786,-13.801919 2.326961,-0.596688 4.787294,-0.866848 7.150773,-0.889856 z"
         sodipodi:nodetypes="scccccccccccssccccccccccccc" /></g><g
       id="g106"
       transform="matrix(1.3333333,0,0,-1.3333333,568.84505,230.49735)"><path
         d="m 0,0 c 0,-2.479 -2.007,-4.488 -4.489,-4.488 -2.476,0 -4.487,2.009 -4.487,4.488 0,2.479 2.011,4.487 4.487,4.487 C -2.007,4.487 0,2.479 0,0"
         style="fill:#000000;fill-opacity:1;fill-rule:nonzero;stroke:none"
         id="path108" /></g><g
       id="g110"
       transform="matrix(1.3333333,0,0,-1.3333333,610.63798,262.57815)"><path
         d="m 0,0 c 0,-2.512 -2.035,-4.549 -4.544,-4.549 -2.514,0 -4.55,2.037 -4.55,4.549 0,2.51 2.036,4.545 4.55,4.545 C -2.035,4.545 0,2.51 0,0"
         style="fill:#000000;fill-opacity:1;fill-rule:nonzero;stroke:none"
         id="path112" /></g><g
       id="g114"
       transform="matrix(1.3333333,0,0,-1.3333333,565.76825,262.58068)"><path
         d="M 0,0 C 0,0 -8.078,-10.684 -10.192,-8.954 -12.309,-7.222 -14.207,3.814 -12.117,3.59 -10.024,3.366 1.896,2.376 0,0"
         style="fill:#000000;fill-opacity:1;fill-rule:nonzero;stroke:none"
         id="path116" /></g><g
       id="g118"
       transform="matrix(1.3333333,0,0,-1.3333333,565.76825,262.58068)"><path
         id="path120"
         style="fill:none;stroke:#000000;stroke-width:3.077;stroke-linecap:butt;stroke-linejoin:miter;stroke-miterlimit:10;stroke-dasharray:none;stroke-opacity:1"
         d="m -10.001953,-8.9277344 c -0.810465,0.1729458 -0.912207,1.1158461 -1.287109,1.7304688 -1.118306,2.6820078 -1.641591,5.6016546 -1.728516,8.4976562 0.02162,0.7937691 0.09577,1.5860507 0.136719,2.3792969 C -9.1177877,3.2682996 -5.3179737,2.9496317 -1.662404,1.916634 -0.44353742,1.7208661 0.14380768,0.15207271 -0.62875308,-0.80647753 -2.9196897,-3.6017368 -5.2024863,-6.4964838 -8.1738281,-8.6113281 -8.70221,-8.9272861 -9.4132587,-9.3083102 -10.001953,-8.9277344 Z" /></g><g
       id="g122"
       transform="matrix(1.3333333,0,0,-1.3333333,550.55465,279.39068)"><path
         style="color:#000000;fill:#000000;stroke-linecap:round;stroke-linejoin:round;stroke-miterlimit:10;-inkscape-stroke:none"
         d="m 18.964844,-58.201172 c -12.0390251,1.049357 -19.62942794,3.004782 -24.3750002,6.484375 a 3.0773076,3.0773076 0 0 0 -0.7910157,4.111328 c 3.7237392,5.95837 4.6582032,8.432217 4.6582032,16.320313 -10e-8,3.720827 -0.7436828,10.065226 -1.3593751,15.849609 -0.3078461,2.892192 -0.5796904,5.6622777 -0.7011718,8.0214845 -0.1214815,2.3592068 -0.2744904,4.077262 0.3789062,6.0390625 A 3.0773076,3.0773076 0 0 0 0.390625,0.65039062 c 0,0 4.2249455,-1.04379508 8.6933594,-4.91210932 4.4684136,-3.8683143 9.4506026,-10.6554073 12.0156246,-21.9101563 0.90101,-3.953434 1.509328,-8.457753 1.716797,-13.587891 0.189354,-4.682191 0.04494,-9.887154 -0.521484,-15.675781 a 3.0773076,3.0773076 0 0 0 -3.330078,-2.765625 z m -2.587891,6.511719 c 0.305446,4.230887 0.432346,8.186918 0.291016,11.681641 -0.193667,4.788852 -0.760608,8.915941 -1.570313,12.46875 -2.305092,10.11423 -6.5248322,15.581033 -10.0410154,18.6249995 -1.0126207,0.8766276 -1.6904272,1.1789878 -2.5039062,1.6855469 0.1127638,-2.1100342 0.3667707,-4.7433034 0.6660156,-7.5546874 0.6088578,-5.720175 1.3925781,-12.016788 1.3925781,-16.501953 0,-7.202448 -1.2587179,-11.717651 -4.0097656,-16.759766 3.1613389,-1.472752 8.3745905,-2.789827 15.7753905,-3.644531 z"
         id="path124" /><path
         style="fill:#ff0000;fill-opacity:1;stroke-width:0.708672"
         d="m 567.67525,177.30777 c -15.32521,-0.0459 -29.449,9.57403 -36.36234,23.02215 -10.34673,17.53472 -4.79303,41.93418 11.66402,53.71788 7.40291,5.17249 17.01439,9.52353 26.09263,7.01573 3.84287,-3.77739 2.72508,-10.05952 5.63566,-14.55091 5.2418,-13.17561 18.19002,-22.52554 32.11446,-24.21664 6.37981,-2.62432 4.08223,-10.59847 2.39956,-15.55882 -5.59057,-17.49318 -23.19939,-29.93188 -41.54399,-29.42939 z m -5.02437,51.98911 c 2.20962,-0.15427 1.57924,3.34531 -0.34327,2.41945 -0.89138,-0.57173 -0.9435,-2.40399 0.34327,-2.41945 z"
         id="path4645"
         transform="matrix(0.75000002,0,0,-0.75000002,-412.916,209.54302)" /><path
         style="fill:#ff0000;fill-opacity:1;stroke-width:0.708672"
         d="m 611.72364,220.87586 c -19.08305,0.20123 -37.25551,14.52416 -40.61576,33.54012 -0.68817,5.57689 -3.3654,11.03718 -1.33983,16.68008 3.66813,18.15009 19.72366,32.84628 38.27105,34.36505 23.44182,2.48809 46.03309,-18.64823 45.70934,-42.14383 0.28876,-22.21324 -19.63431,-42.87858 -42.0248,-42.44142 z m -7.20022,40.26558 c 2.63598,0.0283 1.07246,4.00913 -0.76127,2.51634 -0.4852,-0.73462 -0.46428,-2.58037 0.76127,-2.51634 z"
         id="path4684"
         transform="matrix(0.75000002,0,0,-0.75000002,-412.916,209.54302)" /><path
         style="fill:#ff0000;fill-opacity:1;stroke-width:0.708672"
         d="m 603.14344,177.55137 c -4.2111,-0.53585 -10.46064,0.89845 -9.55876,6.43203 2.39218,5.75816 8.48411,9.10263 11.07162,14.86827 3.22693,5.7298 5.03339,12.10546 5.79256,18.55835 2.84856,6.58821 11.3228,4.88099 16.74929,7.76355 16.03746,6.10069 25.33667,23.41501 24.98623,40.07457 0.33267,10.33914 -4.52412,20.19074 -12.2855,26.88108 -15.63007,15.23098 -44.10128,12.73277 -57.5445,-4.01149 -5.98382,-6.47203 -8.66688,-14.93915 -10.53922,-23.33881 -1.74217,-4.77324 -7.97584,-3.9676 -10.49577,-0.3454 -2.74312,2.24416 -4.86127,5.52156 -7.85771,7.27986 -3.31353,-5.95044 -0.50596,-14.79846 -7.34758,-18.63034 -11.48503,-8.08405 -18.01376,-22.13827 -18.04974,-36.03843 -0.70561,-5.37414 -8.48225,-6.21045 -10.68544,-1.40627 -16.30303,27.30242 -22.87194,58.89085 -30.41891,89.4103 -7.04964,-1.08281 -14.36931,-2.16147 -21.5439,-1.85611 -1.94554,-0.36523 -4.48211,4.03848 -3.82434,0.38202 -0.11009,-3.99821 -0.59359,-8.42425 -2.06373,-11.9187 7.0523,4.35576 17.33102,0.30004 18.7023,-8.10266 2.5793,-7.98127 -5.47856,-13.67906 -11.95607,-16.16796 -18.01741,-6.95241 -40.85662,-4.54661 -54.41233,10.17103 -7.92141,8.05115 -12.31123,18.94487 -15.4666,29.6184 -3.52546,14.55346 -1.11378,30.33784 6.80422,43.0851 13.79338,23.76249 38.57582,40.75118 65.82773,44.64765 7.46594,0.94929 15.18974,2.25516 22.66938,1.21017 3.39357,-3.94498 3.05379,-1.13951 4.07053,2.5768 5.60911,21.15341 13.88994,42.63882 22.49341,61.98802 -7.35557,-1.73325 -12.14717,7.15695 -11.95053,13.48138 0.0153,7.8473 4.1187,14.89903 8.37257,21.21586 -8.90916,0.64195 -18.99877,-1.27972 -26.87417,3.91154 -6.18362,5.28059 -6.16429,15.45717 -2.1883,22.02558 2.4462,3.81197 8.52012,4.65165 11.35536,1.14882 -0.82141,6.22322 4.85504,11.18988 10.82247,11.03425 -5.62225,4.32219 -7.98272,13.34006 -3.48661,19.20334 3.66002,3.38321 10.06025,3.50051 14.13745,0.8983 -1.03506,5.55243 2.56027,11.28093 8.32966,11.93531 4.96603,0.99423 11.29837,-0.0225 14.77831,-3.06584 0.38941,8.7913 10.77038,12.39136 18.09466,9.74424 13.58089,-4.92721 22.85063,-16.98054 31.68252,-27.80431 2.99784,-3.72401 6.70493,-9.29681 8.87649,-12.17752 -1.68726,5.01476 3.79308,8.27035 8.20785,7.65698 4.82475,-0.29741 10.46397,1.45231 14.64331,-1.26993 1.13633,-1.38286 -0.17164,3.48618 0.64158,4.65688 0.52512,4.84776 5.82863,9.46952 10.61486,6.77668 -2.00419,8.641 6.5433,18.15873 15.43714,15.25443 3.25111,-0.78979 6.41602,-2.27672 8.94007,-4.44442 -0.12599,6.91184 3.19592,16.18285 11.36643,16.31883 5.87614,0.13369 8.8034,-5.93182 12.05573,-9.45219 20.33269,4.95933 41.49802,7.88981 62.42956,5.96005 6.61296,-0.18566 12.65096,-5.69216 11.85087,-12.60385 0.55545,-1.75236 -1.72615,-5.82807 1.11561,-5.27766 16.30687,2.0025 32.05513,7.44852 48.41008,9.79878 22.55277,3.56202 45.56279,3.26261 68.28669,1.85547 24.50903,-2.61885 50.85404,-9.40323 67.48595,-28.94197 16.64746,-19.61113 19.48603,-47.12378 16.41571,-71.76687 -3.20507,-23.8172 -15.26803,-48.60769 -37.78798,-59.45646 -13.76204,-6.90643 -31.02868,-5.45371 -44.08161,2.35577 -12.77259,8.26546 -19.39276,24.06199 -17.27941,39.00187 1.10134,13.64562 6.39611,26.50754 8.14004,40.01228 1.2662,5.82726 -5.23395,9.29339 -10.20653,8.05928 -23.10899,0.0109 -46.30285,-0.0615 -69.34838,-0.91551 -3.94188,1.08452 0.44841,-6.40863 0.27808,-9.19673 6.58346,-28.02531 9.59231,-57.91918 0.9063,-85.8528 -7.68784,-24.072 -21.45456,-47.16224 -42.15767,-62.18181 -18.48433,-12.78294 -39.89273,-20.91969 -61.85239,-25.31425 11.01343,-21.71063 22.07958,-43.51411 30.62749,-66.34959 2.4074,-4.56404 -0.92196,-9.19305 -5.04471,-11.19047 -17.89239,-10.9455 -37.85264,-18.32177 -58.37962,-22.46435 1.62473,-9.65021 3.71589,-19.37277 3.67624,-29.18427 -1.63972,-6.12702 -9.25429,-4.53116 -14.05449,-5.30531 -12.78507,-0.74425 -25.59564,-1.24408 -38.40385,-1.22084 z m -52.48185,105.85925 c 8.86136,3.0923 15.29727,10.86605 19.13414,19.09677 6.84614,15.48378 7.62861,32.75002 5.78425,49.28315 -2.2514,1.12609 -6.26818,-0.57199 -9.29424,-0.6351 -6.76943,-1.25165 -14.07822,-2.33649 -19.7267,-6.47238 5.49558,-7.97473 7.07099,-17.82249 6.29085,-27.33093 -0.27342,-11.352 -2.91696,-22.458 -2.1883,-33.94151 z m -108.44203,31.23416 c 2.18432,2.7151 3.22676,2.95047 -0.75988,3.63471 -2.35937,2.25711 1.25458,-3.1806 0.75988,-3.63471 z m 221.88628,200.56384 c 4.37544,3.25045 -1.78122,3.87999 -1.66233,2.60354 0.80316,-0.61928 1.41657,-2.05503 1.66233,-2.60354 z m -143.53236,17.74586 c -1.36165,0.3156 0.72218,-0.62966 0,0 z"
         id="path4723"
         transform="matrix(0.75000002,0,0,-0.75000002,-412.916,209.54302)" /><path
         style="fill:#ff0000;fill-opacity:1;stroke-width:0.708672"
         d="m 570.88642,324.19247 c -7.0611,1.6126 -14.66517,4.06158 -19.74869,9.4605 -3.02501,4.05587 -5.74986,11.60083 0.15502,14.54992 6.79801,2.54958 14.23679,4.52377 21.5127,4.20484 6.56931,-1.21085 3.92551,-9.3138 4.44656,-14.03628 -0.22627,-5.01304 1.22803,-14.26379 -6.36559,-14.17898 z"
         id="path4799"
         transform="matrix(0.75000002,0,0,-0.75000002,-412.916,209.54302)" /></g><g
       id="g126"
       transform="matrix(1.3333333,0,0,-1.3333333,576.61199,327.77735)"><path
         id="path128"
         style="fill:#000000;fill-opacity:1;fill-rule:nonzero;stroke:none"
         d="m -19.082031,-4.5175781 c 1.751095,6.4494759 0.949123,13.1967046 0.466267,19.7590611 -0.499609,6.224922 -1.229925,12.456591 -1.232844,18.701659 0.09794,1.242375 1.645681,1.947574 2.656193,1.23586 4.818059,-2.983145 8.5793611,-7.462891 11.2041338,-12.450486 C -2.2968693,15.740048 -0.66391595,7.8690076 0.01757813,0.05078125 -4.2516162,-0.49212809 -8.4621647,-1.6249275 -12.320312,-3.5546875 c -0.468484,-0.227594 -1.238809,-0.6311845 -1.804688,-0.953125 -2.099798,-1.2011148 -4.061733,-2.6224233 -6.089844,-3.9375 0.377604,1.3092448 0.755209,2.6184896 1.132813,3.9277344 z" /></g><g
       id="g130"
       transform="matrix(1.3333333,0,0,-1.3333333,484.99732,313.45188)"><path
         id="path132"
         style="fill:#000000;fill-opacity:1;fill-rule:nonzero;stroke:none"
         d="M 1.7285156,-1.8007812 C 0.54404261,-1.848531 -0.24223475,-0.46949621 0.02178452,0.61269098 0.89141852,14.820318 3.7869581,28.851307 7.7353372,42.509076 10.910746,53.408138 14.940169,64.140699 20.722038,73.943974 c 3.462394,5.750223 7.676831,11.181014 13.104134,15.20251 1.472278,1.471216 4.348619,0.910308 5.027344,-1.099609 C 39.53572,86.504888 38.557013,84.795909 37.241648,83.95538 31.60791,79.31934 27.637364,73.039616 24.254666,66.659271 19.684874,57.875016 16.359353,48.505656 13.442531,39.062381 9.8066113,27.107464 7.1014002,14.955669 4.2149263,2.8011732 3.8922465,1.4975954 3.6633558,0.12297393 3.190579,-1.1129666 2.7996349,-1.5087472 2.3081717,-1.8380789 1.7285156,-1.8007812 Z" /></g><path
       id="path136"
       style="fill:#000000;fill-opacity:1;fill-rule:nonzero;stroke:none;stroke-width:1.33333"
       d="m 576.58203,174.01953 c -2.48397,0.0319 -4.36269,2.7011 -3.75781,5.0625 0.42203,1.95216 2.40072,3.29092 4.36445,3.13477 12.16885,-0.55979 24.41083,-0.4751 36.62394,-0.15546 8.28721,0.26054 16.64396,0.55831 24.94589,1.1604 4.13956,0.2094 8.19562,0.65831 12.30791,1.06732 -0.13156,4.87183 -0.63502,9.72826 -1.22257,14.56394 -0.60897,4.83903 -1.55666,9.63196 -2.82822,14.34036 -0.47193,2.30609 1.52905,4.60096 3.83204,4.67187 5.92283,0.93151 11.95125,2.4218 17.77192,4.16672 8.22582,2.50089 16.29682,5.54096 24.0595,9.24392 6.7565,3.17407 13.30155,6.82533 19.44592,11.06983 -1.61555,4.57324 -3.32125,9.11454 -5.22232,13.57731 -2.83756,7.04561 -6.03356,13.9375 -9.17248,20.85194 -4.59228,9.90522 -9.4402,19.69458 -14.61505,29.30896 -1.12507,2.15299 -2.3955,4.23876 -3.46385,6.41503 -0.91388,2.40223 1.06526,5.26808 3.61042,5.36239 3.45862,0.55264 7.05711,1.28437 10.35937,2.07812 12.53643,3.0683 24.70898,7.65175 36.14493,13.63612 11.78686,6.20263 22.75372,14.25746 31.29525,24.54834 4.5356,5.41575 8.44327,11.33348 11.99231,17.43297 2.37965,4.15171 4.51866,8.44038 6.41517,12.83374 0.47007,1.10108 1.02714,2.43121 1.49619,3.63591 3.95827,10.0165 6.52615,20.56937 7.69131,31.27425 0.12702,1.17423 0.2743,2.60259 0.37592,3.87719 0.49887,5.99693 0.59009,12.02542 0.33111,18.03687 -0.0587,1.03819 -0.11734,2.34769 -0.20504,3.48844 -0.25349,4.26949 -0.64074,8.55938 -1.18398,12.7406 -0.32778,2.51694 -0.69251,4.97462 -1.12767,7.54027 -0.68188,3.97814 -1.42202,7.71845 -2.33046,11.66852 -2.33085,10.03564 -4.95153,20.02399 -6.52772,30.21542 -0.0937,1.28926 -0.63846,2.72347 0.19681,3.88426 0.95861,1.53303 3.44099,1.74298 4.52572,0.24179 0.59728,-0.85475 0.77452,-1.95375 1.18668,-2.91276 4.81527,-13.81456 8.69516,-27.9815 11.07182,-42.42669 2.56744,-15.69956 3.29884,-31.77494 1.21953,-47.57748 -2.37285,-18.71965 -9.00982,-36.85252 -19.1167,-52.77643 -5.10294,-8.05689 -10.91193,-15.7306 -17.88275,-22.27279 -8.46904,-8.03443 -18.16889,-14.69618 -28.38795,-20.30083 -12.70796,-6.91587 -26.37003,-11.98692 -40.36011,-15.61016 -0.34235,-0.22855 -1.50158,-0.0447 -1.035,-0.66789 4.97187,-11.5873 10.29905,-23.03179 15.60356,-34.44411 5.35215,-11.39757 10.76032,-22.77707 16.04708,-34.20457 0.72072,-1.98999 -0.64354,-4.17982 -2.51912,-4.91415 -8.70109,-4.97917 -17.65278,-9.52296 -26.85156,-13.51117 -6.96592,-3.00016 -14.04419,-5.74163 -21.23953,-8.14494 -4.8929,-1.67001 -9.84568,-3.1594 -14.82384,-4.55244 0.96566,-7.35873 2.28975,-14.67018 2.96366,-22.06566 0.24858,-2.76142 0.52492,-5.52502 0.70431,-8.2898 0.016,-1.75999 -1.26951,-3.43289 -3.0334,-3.71663 -1.4582,-0.27772 -2.96004,-0.12297 -4.43586,-0.25779 -18.44091,-0.7224 -36.89508,-1.04393 -55.34324,-1.54121 -6.55503,-0.19734 -13.28507,-0.49908 -19.89649,-0.78711 z" /><g
       id="g138"
       transform="matrix(1.3333333,0,0,-1.3333333,665.63025,523.00134)"><path
         id="path140"
         style="fill:#000000;fill-opacity:1;fill-rule:nonzero;stroke:none"
         d="m 2.8085938,-43.427734 c -3.9251797,0.230387 -7.1749895,3.12424 -8.948794,6.473766 -0.6428819,1.155322 -1.0944594,2.405956 -1.4281592,3.682484 -3.4145406,-1.370834 -7.3280576,-2.11006 -10.8807926,-0.809356 -3.960632,1.402631 -6.817411,5.094744 -7.660788,9.15213 -0.181799,0.420698 0.02269,1.185888 -0.602897,1.159578 -2.668205,0.560468 -5.092432,2.259553 -6.345757,4.706632 -2.025531,3.831377 -1.552015,8.466911 -0.09644,12.4059473 1.058248,2.8860734 2.629025,5.75140239 5.254508,7.48988094 3.643481,2.52675596 8.066255,3.56043166 12.370061,4.31637976 5.34623,0.8913623 10.7934061,1.1238352 16.20233713,0.9654698 C 2.8353384,5.8093861 3.974189,2.922101 2.6015625,1.2207031 1.7330075,0.06607998 0.19107619,-0.14022961 -1.1523438,0.02734375 -1.842522,0.04148022 -2.8364454,-0.00183968 -3.6435544,-0.00309908 c -2.3941251,-0.05093028 -4.7954385,-0.16483733 -7.0686036,-0.39975393 -2.054503,-0.21764306 -3.985956,-0.49385092 -6.034109,-0.93831119 -2.836082,-0.6515849 -5.803071,-1.3933445 -8.118021,-3.2481605 -1.394412,-1.188225 -2.039252,-2.9840676 -2.686252,-4.644418 -0.707798,-2.1602603 -1.086694,-4.6371773 -0.164304,-6.7877413 0.660811,-1.41986 2.308725,-1.973097 3.778446,-1.825547 1.273587,0.135577 2.712027,-0.247328 3.34848,-1.457882 0.568479,-0.877873 0.452354,-1.946341 0.329503,-2.921986 0.01292,-2.824656 1.910615,-5.901877 4.878608,-6.297322 3.260336,-0.406887 6.2963348,1.234049 9.031607,2.796183 1.5667192,1.120806 3.9305712,0.178061 4.4991947,-1.606308 0.4639926,-1.155429 -0.199253,-2.367032 0.08338,-3.556279 0.3302412,-2.299737 1.53706002,-4.573417 3.4738808,-5.902312 1.0349727,-0.695423 2.4313,-0.627465 3.4037337,0.147996 2.0674528,1.34744 3.1852306,3.629646 4.4192605,5.672285 0.919976,1.184884 2.655654,1.406621 3.950915,0.746144 5.547496,-1.69204 11.419947,-2.552459 17.206685,-3.414709 7.901298,-1.080597 15.825361,-1.725521 23.827306,-1.414661 2.37376,0.114458 4.96854,0.15383 7.268211,1.101858 1.569704,0.584439 2.595984,2.110383 2.756919,3.749979 0.270774,1.956701 0.01241,3.935873 -0.286775,5.870207 -0.230491,1.538915 0.851059,3.135936 2.419631,3.351999 1.343722,0.223107 2.702179,-0.148632 4.047,-0.240424 7.088399,-0.938209 13.96021,-2.986416 20.924372,-4.542715 6.083065,-1.416811 12.242806,-2.598336 18.372066,-3.428381 10.00909,-1.331422 19.98418,-1.744604 30.10643,-1.562565 2.85648,0.0468 5.75716,0.163369 8.50685,0.29108 4.43024,0.250833 8.85384,0.6416 13.25,1.25 1.5905,0.234788 3.3935,0.503813 5.05535,0.817658 1.90859,0.337342 3.97664,0.798161 5.75129,1.209686 9.29275,2.250069 18.43995,5.867995 25.9397,11.918409 6.23332,4.984764 11.05849,11.673094 13.88404,19.1336105 2.13288,5.4710359 3.26933,11.3286705 3.79638,17.1042415 0.99353,11.372514 0.34743,23.048739 -3.31268,33.930456 -2.0502,6.165036 -5.05853,12.040797 -9.10041,17.141799 -0.64923,0.807613 -1.48231,1.799181 -2.25858,2.633205 -5.67484,6.171444 -13.29686,10.861448 -21.7079,11.937291 -4.47885,0.552534 -9.04465,-0.09237 -13.35115,-1.361564 -5.6282,-1.692521 -10.82448,-5.165005 -14.03434,-10.150079 -3.35178,-5.099355 -4.58439,-11.331432 -4.35024,-17.365852 0.21252,-5.679345 1.69491,-11.220454 3.06354,-16.687142 0.45253,-1.708957 0.99157,-3.614286 1.48567,-5.3967 0.85908,-3.32109 1.86288,-6.652513 2.05186,-10.09585 0.16246,-2.682938 -0.67569,-5.614429 -2.94334,-7.244409 -2.86844,-2.129615 -6.6027,-2.316511 -10.03791,-2.46754 -9.07661,-0.326116 -18.1568,0.123495 -27.22895,0.398024 -8.27678,0.279474 -16.56156,0.587515 -24.841002,0.54085 -1.978783,0.188252 -3.425572,2.515481 -2.521485,4.335938 0.632156,1.621777 2.625789,2.153044 4.17831,1.681627 12.116417,-1.838712 24.364127,-2.677841 36.599867,-2.937923 3.89062,-0.0757 7.81876,-0.07825 11.64026,0.101533 2.81441,0.219651 5.74723,0.166936 8.3964,1.266232 1.18109,0.45353 2.05854,1.557625 2.08555,2.843609 0.11477,2.884259 -0.90566,5.652583 -1.64282,8.400393 -2.25562,7.426491 -4.76458,14.85865 -5.58095,22.617175 -0.8633,8.180642 0.78396,16.812862 5.5577,23.615458 3.86909,5.5794 9.78872,9.54285 16.24225,11.517364 6.59811,2.023477 13.80274,2.51342 20.4763,0.545581 9.06251,-2.522401 16.8715,-8.531548 22.54086,-15.936293 7.11086,-9.244789 11.03465,-20.617273 12.48432,-32.10997 1.04233,-8.397525 0.98678,-16.93035 -0.0718,-25.323536 -1.33594,-9.9504086 -4.71112,-19.8163698 -10.91544,-27.807922 -5.33034,-6.958692 -12.58009,-12.288535 -20.52328,-15.91004 -10.83295,-4.983889 -22.70844,-7.185478 -34.51102,-8.309074 -11.54966,-1.059239 -23.18415,-1.286262 -34.7633,-0.59689 -11.73959,0.713905 -23.368172,2.681884 -34.823803,5.299531 -2.988127,0.661595 -5.890484,1.305281 -8.865308,1.85099 -1.693015,0.31129 -3.540183,0.601028 -5.234565,0.799576 -0.05121,-3.376545 -0.794928,-7.018655 -3.335937,-9.435547 -2.690472,-2.549555 -6.561454,-3.099915 -10.115856,-3.228686 -4.528331,-0.171409 -9.066605,-0.06878 -13.590697,0.169096 -8.015127,0.506683 -16.01347,1.315167 -23.969416,2.412997 -2.007993,0.281898 -4.015329,0.573833 -6.009578,0.941515 -1.939694,-3.10808 -4.7090319,-6.058883 -8.4277344,-6.849609 -0.7330868,-0.150308 -1.4857467,-0.18976 -2.2324218,-0.162109 z" /></g><g
       id="g142"
       transform="matrix(1.3333333,0,0,-1.3333333,707.49478,447.95188)"><path
         id="path144"
         style="fill:#000000;fill-opacity:1;fill-rule:nonzero;stroke:none"
         d="m -1.8769531,-70.302734 c -7.1928944,1.478905 -14.5286679,3.1484 -20.9062599,6.947296 -5.174521,2.994837 -9.426825,7.493204 -12.24217,12.758623 -1.044492,1.885624 -1.84049,3.905011 -2.567905,5.931366 -0.945611,2.805738 -1.58861,5.696841 -2.082975,8.61362 -0.406561,2.81665 -0.676551,5.665014 -0.721329,8.513149 -0.06298,6.48248 1.946749,13.100279 6.22103,18.0524849 4.769771,5.5894317 11.657021,8.94630262 18.708781,10.6338654 4.182906,1.0017507 8.5062395,1.5325874 12.8009462,1.4750506 C -1.5109628,2.2380639 -0.35509078,1.853407 0.80078125,1.46875 -0.37185961,0.88084799 -1.486592,0.12381436 -2.6954461,-0.35832061 -6.4817596,-0.95335652 -10.23585,-1.7910433 -13.876953,-2.9960938 c -0.672828,-0.2332808 -1.642899,-0.5738282 -2.419922,-0.8730468 -5.583558,-2.1655949 -10.983444,-5.4347513 -14.44387,-10.4415824 -2.41957,-3.468617 -3.592795,-7.690342 -3.782693,-11.886543 -0.01168,-0.394316 -0.03875,-1.181386 -0.03125,-1.724609 0.06375,-2.765769 0.364222,-5.525956 0.79938,-8.256546 0.366855,-2.252597 0.86628,-4.476791 1.562595,-6.651366 1.387197,-4.314067 3.539192,-8.444119 6.650216,-11.770415 4.646906,-5.075854 11.092711,-7.982634 17.5112041,-10.124671 2.4529636,-0.813609 4.919702,-1.585381 7.36918352,-2.409893 0.74042653,-0.686356 0.92027322,-1.943972 0.13594769,-2.667598 -0.34370693,-0.345081 -0.86137311,-0.560354 -1.35079141,-0.50037 z" /></g><g
       id="g146"
       transform="matrix(1.3333333,0,0,-1.3333333,663.37758,557.01307)"><path
         d="m 0,0 c 0.007,0.012 -0.045,-0.261 -0.059,-0.562 -0.022,-0.308 -0.048,-0.714 -0.047,-1.127 0,-0.202 -0.012,-0.413 -0.003,-0.589 0.019,-0.162 0.038,-0.314 0.053,-0.443 0.028,-0.25 0.045,-0.416 0.045,-0.416 L -0.007,-3.17 C 0.182,-4.9 -1.069,-6.456 -2.8,-6.645 c -1.731,-0.187 -3.286,1.063 -3.474,2.794 -0.05,0.457 0.006,0.917 0.14,1.328 0,0 0.096,0.29 0.239,0.725 0.075,0.214 0.161,0.462 0.253,0.729 0.1,0.248 0.218,0.482 0.33,0.73 0.218,0.488 0.47,0.966 0.661,1.319 0.189,0.365 0.305,0.524 0.307,0.538 0.419,1.199 1.732,1.832 2.931,1.413 C -0.214,2.512 0.419,1.199 0,0"
         style="fill:#000000;fill-opacity:1;fill-rule:nonzero;stroke:none"
         id="path148" /></g><g
       id="g150"
       transform="matrix(1.3333333,0,0,-1.3333333,641.24092,546.55988)"><path
         d="m 0,0 c 0,0 -0.021,-0.016 -0.062,-0.045 -0.051,-0.032 -0.096,-0.069 -0.12,-0.101 -0.084,-0.083 -0.203,-0.203 -0.345,-0.346 -0.171,-0.149 -0.322,-0.383 -0.508,-0.586 -0.139,-0.239 -0.331,-0.466 -0.438,-0.718 l -0.162,-0.363 c -0.069,-0.113 -0.091,-0.236 -0.111,-0.35 -0.029,-0.232 -0.15,-0.413 -0.117,-0.599 0.007,-0.354 -0.025,-0.562 -0.025,-0.562 L -1.95,-4.093 c -0.249,-1.688 -1.82,-2.855 -3.508,-2.605 -1.688,0.249 -2.855,1.819 -2.605,3.508 0.018,0.127 0.049,0.269 0.084,0.391 0,0 0.172,0.61 0.484,1.485 0.127,0.448 0.444,0.89 0.712,1.388 0.139,0.247 0.289,0.495 0.479,0.711 0.183,0.222 0.367,0.446 0.553,0.671 0.373,0.441 0.812,0.79 1.196,1.14 0.421,0.3 0.786,0.6 1.149,0.8 0.175,0.103 0.336,0.198 0.478,0.282 0.17,0.088 0.318,0.164 0.44,0.227 0.132,0.068 0.212,0.103 0.249,0.116 0.047,0.018 0.071,0.028 0.071,0.028 C -0.985,4.527 0.361,3.957 0.84,2.773 1.249,1.76 0.889,0.625 0.031,0.021 Z"
         style="fill:#000000;fill-opacity:1;fill-rule:nonzero;stroke:none"
         id="path152" /></g><g
       id="g154"
       transform="matrix(1.3333333,0,0,-1.3333333,623.89185,539.41668)"><path
         d="M 0,0 C 0,0 -13.59,-1.672 -19.617,2.305"
         style="fill:none;stroke:#000000;stroke-width:6.154;stroke-linecap:round;stroke-linejoin:round;stroke-miterlimit:10;stroke-dasharray:none;stroke-opacity:1"
         id="path156" /></g><g
       id="g158"
       transform="matrix(1.3333333,0,0,-1.3333333,633.84758,458.63934)"><path
         id="path160"
         style="fill:#000000;fill-opacity:1;fill-rule:nonzero;stroke:none"
         d="m -59.005859,-88.804688 c -3.498469,0.127058 -7.302763,0.720357 -9.91361,3.267596 -1.007076,0.899955 -1.691627,2.102634 -2.168422,3.353498 -4.257459,-1.24247 -9.049674,-1.578186 -13.154297,0.363282 -2.489786,1.268872 -4.408102,3.685884 -4.916015,6.451171 -3.360475,-0.204739 -7.083136,0.151653 -9.724609,2.455079 -2.121898,1.891006 -3.056398,4.808712 -2.904968,7.598783 0.0254,4.192565 1.71252,8.653551 5.358092,10.989107 2.941676,1.877363 6.652629,2.17722 9.996094,1.40625 3.599821,6.008608 7.077008,12.128297 9.625587,18.669059 1.260581,2.904889 2.118403,5.96171 3.141731,8.95447 0.231909,0.738203 0.477084,1.5412 0.694616,2.325873 1.148569,4.356135 2.413262,8.656345 3.207568,13.111852 0.678127,3.3506962 1.388009,6.5575132 1.926201,9.8977305 0.167046,1.2766473 0.448866,2.7748354 0.689581,4.132107 0.563455,2.9457681 1.191762,5.9160985 2.251391,8.7181525 0.726196,1.20217 2.665315,1.099586 3.292472,-0.135014 0.512084,-0.854407 0.17411,-1.896136 0.270565,-2.8409906 -0.117942,-7.3785751 -1.396906,-14.6720687 -2.778522,-21.9015384 -0.735243,-4.61821 -2.019211,-9.224422 -3.11075,-13.806456 -1.03727,-3.286567 -2.059103,-6.583721 -3.267409,-9.810931 -1.40931,-3.489109 -2.845507,-6.97364 -4.649335,-10.281801 -2.151936,-4.143656 -4.634357,-8.106471 -7.111902,-12.058972 -0.622957,-1.105319 -1.843392,-1.920332 -3.150074,-1.677772 -1.342651,0.23075 -2.586163,0.928625 -3.979284,0.929362 -2.03719,0.192776 -4.32502,-0.59664 -5.271186,-2.531771 -0.917541,-1.7784 -1.191855,-3.894124 -0.841797,-5.855469 0.220871,-1.315906 1.597133,-1.859248 2.765268,-2.038939 2.013052,-0.312288 4.053241,-0.04895 6.058951,0.173704 1.473249,0.161724 2.974144,-0.807542 3.286473,-2.284354 0.332904,-1.190459 -0.125962,-2.502163 0.501928,-3.636626 0.675154,-1.581775 2.585124,-1.949255 4.113944,-2.133781 3.044809,-0.177221 6.174512,0.46829 8.83203,1.990308 1.921304,0.758431 4.183865,-0.898734 4.175781,-2.933593 0.176611,-1.444232 0.697445,-3.191048 2.25928,-3.661783 1.91888,-0.73025 4.043256,-0.815491 6.067681,-0.629246 3.304328,0.598746 6.093499,2.658534 8.678479,4.684282 5.774099,4.700506 10.539854,10.487208 15.064092,16.362215 2.023107,2.674693 4.001748,5.470493 5.792233,8.209989 2.483729,3.729887 4.624627,7.672532 6.682233,11.649203 2.871005,5.815923 5.479456,11.756954 7.927699,17.76256 3.129924,7.578876 6.0625141,15.257191 8.9792832,22.95511624 0.3724833,0.78276773 0.5447322,1.70795136 1.0439431,2.40017136 0.9184847,1.081463 2.84229558,0.6232227 3.21992083,-0.7188362 C 0.33622735,0.02497738 -0.39153778,-0.97417603 -0.539915,-1.9973364 -3.1019713,-11.336743 -6.0984366,-20.559775 -9.5237078,-29.618245 c -2.1078732,-5.489762 -4.3595962,-10.929978 -6.9229422,-16.223099 -2.006605,-3.781444 -3.978767,-7.590989 -6.383688,-11.140338 -5.798374,-8.910548 -12.293337,-17.502625 -20.340072,-24.516124 -3.573921,-3.008857 -7.512899,-5.894173 -12.138184,-6.98071 -1.211545,-0.270394 -2.456723,-0.387472 -3.697265,-0.326172 z" /></g><g
       id="g162"
       transform="matrix(1.3333333,0,0,-1.3333333,546.81639,556.26694)"><path
         d="M 0,0 C 0,0 -0.014,-0.021 -0.039,-0.062 -0.08,-0.118 -0.064,-0.124 -0.074,-0.157 -0.081,-0.188 -0.082,-0.2 -0.118,-0.295 c -0.03,-0.076 -0.064,-0.162 -0.1,-0.256 -0.054,-0.22 -0.155,-0.437 -0.202,-0.727 -0.064,-0.276 -0.125,-0.57 -0.147,-0.885 -0.05,-0.3 -0.059,-0.614 -0.055,-0.912 -0.011,-0.292 -0.013,-0.564 0.023,-0.808 0.042,-0.473 0.07,-0.79 0.07,-0.79 l 0.014,-0.169 c 0.15,-1.709 -1.114,-3.215 -2.823,-3.364 -1.709,-0.149 -3.216,1.114 -3.365,2.823 -0.021,0.237 -0.012,0.485 0.019,0.71 0,0 0.072,0.498 0.178,1.244 0.041,0.369 0.142,0.803 0.268,1.264 0.109,0.46 0.246,0.945 0.44,1.426 0.162,0.48 0.379,0.952 0.601,1.386 0.197,0.436 0.471,0.832 0.67,1.167 0.12,0.169 0.23,0.324 0.328,0.46 0.085,0.122 0.215,0.284 0.31,0.399 0.093,0.112 0.186,0.223 0.207,0.24 0.035,0.034 0.053,0.052 0.053,0.052 0.921,0.918 2.412,0.916 3.331,-0.006 0.79,-0.793 0.899,-2.01 0.324,-2.918 z"
         style="fill:#000000;fill-opacity:1;fill-rule:nonzero;stroke:none"
         id="path164" /></g><g
       id="g166"
       transform="matrix(1.3333333,0,0,-1.3333333,526.03319,547.63668)"><path
         d="M 0,0 C 0.016,0.002 -0.077,-0.015 -0.056,-0.021 -0.038,-0.023 -0.08,-0.044 -0.151,-0.074 -0.283,-0.142 -0.499,-0.235 -0.729,-0.405 -0.96,-0.568 -1.214,-0.776 -1.427,-1.046 -1.657,-1.296 -1.829,-1.624 -1.991,-1.951 -2.047,-2.14 -2.135,-2.295 -2.18,-2.487 -2.219,-2.686 -2.289,-2.851 -2.312,-3.05 -2.341,-3.243 -2.368,-3.431 -2.395,-3.608 -2.402,-3.8 -2.409,-3.98 -2.415,-4.147 c -0.035,-0.319 0.024,-0.641 0.02,-0.836 0.008,-0.204 0.013,-0.32 0.013,-0.32 l 0.007,-0.157 c 0.07,-1.708 -1.257,-3.149 -2.964,-3.22 -1.707,-0.07 -3.149,1.257 -3.22,2.964 -0.007,0.174 0.003,0.362 0.024,0.529 0,0 0.025,0.19 0.068,0.522 0.06,0.337 0.075,0.792 0.23,1.377 0.07,0.287 0.145,0.598 0.225,0.927 0.116,0.33 0.238,0.678 0.364,1.039 0.127,0.356 0.33,0.724 0.504,1.092 0.183,0.366 0.439,0.725 0.665,1.081 0.516,0.693 1.104,1.342 1.76,1.833 0.636,0.509 1.308,0.867 1.897,1.117 0.587,0.257 1.112,0.385 1.492,0.47 0.189,0.039 0.351,0.068 0.511,0.09 0.162,0.024 0.147,0.015 0.162,0.018 C 0.552,4.561 1.68,3.728 1.861,2.518 2.042,1.309 1.209,0.181 0,0"
         style="fill:#000000;fill-opacity:1;fill-rule:nonzero;stroke:none"
         id="path168" /></g><g
       id="g170"
       transform="matrix(1.3333333,0,0,-1.3333333,506.55799,512.96748)"><path
         d="M 0,0 C 0.006,0.002 -0.052,-0.026 -0.083,-0.055 -0.131,-0.091 -0.2,-0.143 -0.288,-0.208 -0.481,-0.355 -0.765,-0.575 -1.077,-0.873 -1.71,-1.452 -2.437,-2.339 -2.92,-3.288 -3.055,-3.517 -3.146,-3.769 -3.249,-4.001 -3.36,-4.229 -3.411,-4.483 -3.493,-4.704 -3.576,-4.925 -3.6,-5.164 -3.655,-5.369 -3.711,-5.573 -3.726,-5.783 -3.749,-5.968 -3.808,-6.333 -3.804,-6.65 -3.808,-6.866 c -0.005,-0.215 -0.009,-0.337 -0.009,-0.337 -0.05,-1.715 -1.48,-3.066 -3.195,-3.016 -1.716,0.049 -3.066,1.48 -3.016,3.196 0.006,0.21 0.032,0.415 0.078,0.612 l 0.091,0.378 c 0,0 0.048,0.203 0.132,0.559 0.086,0.357 0.201,0.867 0.427,1.463 0.106,0.3 0.213,0.626 0.375,0.955 0.159,0.329 0.297,0.692 0.504,1.035 0.205,0.341 0.389,0.715 0.637,1.052 0.24,0.343 0.475,0.7 0.753,1.02 1.066,1.325 2.371,2.39 3.44,3.053 0.529,0.339 1.004,0.585 1.359,0.757 0.171,0.082 0.329,0.155 0.475,0.214 0.1,0.04 0.153,0.062 0.153,0.062 C -0.473,4.596 0.817,4.05 1.276,2.918 1.71,1.847 1.245,0.634 0.233,0.118 Z"
         style="fill:#000000;fill-opacity:1;fill-rule:nonzero;stroke:none"
         id="path172" /></g><g
       id="g174"
       transform="matrix(1.3333333,0,0,-1.3333333,495.32092,375.99735)"><path
         id="path176"
         style="fill:#000000;fill-opacity:1;fill-rule:nonzero;stroke:none"
         d="m 23.123047,-75.767578 c -1.414072,-0.02395 -2.322302,1.253182 -2.839844,2.416016 -4.337838,6.902742 -8.053234,14.181807 -11.3521758,21.632682 -3.4063949,7.669837 -6.2919825,15.569976 -8.5682177,23.649238 -2.5455247,8.910058 -4.5637299,18.006241 -5.4409345,27.241517 -0.1479994,1.11273456 0.2669091,2.3731275 1.3633365,2.8426251 1.49993,0.7986793 3.60496298,-0.2559235 3.71080737,-1.99619756 C 1.8208355,-9.8900356 4.4285746,-19.620069 7.4389439,-29.261173 c 1.3063546,-4.087888 2.7865221,-8.14538 4.2212151,-12.148849 2.220601,-5.986156 4.76177,-11.856751 7.354285,-17.655769 2.006399,-4.330898 4.124637,-8.61053 6.234476,-12.889996 0.556113,-1.050644 0.444171,-2.442805 -0.516896,-3.220392 -0.447778,-0.370197 -1.023885,-0.606508 -1.608977,-0.591399 z" /></g><g
       id="g178"
       transform="matrix(1.3333333,0,0,-1.3333333,442.89519,300.98828)"><path
         d="m 0,0 c 0,0 0.074,-0.174 0.203,-0.479 0.125,-0.298 0.294,-0.72 0.485,-1.232 0.384,-1.023 0.847,-2.406 1.191,-3.892 0.178,-0.737 0.314,-1.51 0.402,-2.273 0.056,-0.37 0.063,-0.769 0.086,-1.133 0.032,-0.356 -0.005,-0.753 -0.01,-1.09 10e-4,-0.332 -0.073,-0.701 -0.112,-0.999 -0.036,-0.296 -0.102,-0.58 -0.182,-0.828 -0.151,-0.48 -0.237,-0.755 -0.237,-0.755 -0.525,-1.671 -2.305,-2.599 -3.976,-2.075 -1.67,0.525 -2.6,2.305 -2.075,3.976 0.022,0.068 0.045,0.135 0.071,0.201 l 0.205,0.522 c 0,0 0.019,0.048 0.078,0.126 0.034,0.028 0.073,0.089 0.105,0.203 0.031,0.11 0.099,0.191 0.126,0.371 0.029,0.171 0.098,0.321 0.115,0.55 0.023,0.221 0.072,0.438 0.077,0.705 0.035,0.511 0.044,1.095 0.007,1.7 -0.057,1.206 -0.237,2.472 -0.411,3.411 -0.086,0.47 -0.167,0.861 -0.226,1.128 -0.058,0.26 -0.092,0.409 -0.092,0.409 l -0.023,0.103 c -0.269,1.191 0.479,2.375 1.67,2.644 C -1.463,1.533 -0.409,0.966 0,0"
         style="fill:#000000;fill-opacity:1;fill-rule:nonzero;stroke:none"
         id="path180" /></g><g
       id="g182"
       transform="matrix(1.3333333,0,0,-1.3333333,444.59706,282.04362)"><path
         d="M 0,0 C 0,0 0.056,0.006 0.16,0.018 0.276,0.027 0.447,0.041 0.664,0.058 1.074,0.089 1.642,0.104 2.33,0.096 3.017,0.068 3.822,0.031 4.693,-0.115 5.129,-0.17 5.581,-0.276 6.042,-0.38 c 0.46,-0.102 0.929,-0.266 1.399,-0.409 0.464,-0.193 0.939,-0.353 1.39,-0.591 0.449,-0.246 0.906,-0.454 1.313,-0.759 0.413,-0.286 0.82,-0.556 1.16,-0.891 0.345,-0.324 0.697,-0.61 0.951,-0.946 0.266,-0.327 0.509,-0.628 0.725,-0.894 0.179,-0.291 0.334,-0.545 0.462,-0.753 0.248,-0.427 0.39,-0.671 0.39,-0.671 0.858,-1.478 0.356,-3.373 -1.122,-4.231 -1.478,-0.859 -3.373,-0.357 -4.231,1.121 -0.083,0.142 -0.152,0.287 -0.21,0.435 l -0.101,0.265 c 0,0 -0.044,0.117 -0.122,0.32 -0.035,0.106 -0.078,0.234 -0.128,0.382 -0.077,0.129 -0.16,0.28 -0.248,0.451 -0.069,0.184 -0.225,0.33 -0.352,0.518 -0.116,0.196 -0.307,0.36 -0.487,0.548 -0.165,0.202 -0.414,0.354 -0.634,0.543 -0.224,0.186 -0.509,0.327 -0.765,0.505 -0.289,0.138 -0.566,0.304 -0.87,0.428 C 4.257,-4.886 3.96,-4.752 3.649,-4.66 3.042,-4.443 2.434,-4.312 1.914,-4.198 1.391,-4.103 0.945,-4.037 0.645,-4.009 0.507,-3.995 0.399,-3.984 0.326,-3.976 0.24,-3.971 0.194,-3.969 0.194,-3.969 L 0.112,-3.964 C -0.985,-3.901 -1.824,-2.96 -1.761,-1.863 -1.704,-0.881 -0.945,-0.107 0,0"
         style="fill:#000000;fill-opacity:1;fill-rule:nonzero;stroke:none"
         id="path184" /></g><g
       id="g186"
       transform="matrix(1.3333333,0,0,-1.3333333,610.89065,225.52802)"><path
         id="path188"
         style="fill:#000000;fill-opacity:1;fill-rule:nonzero;stroke:none"
         d="m -31.634766,-29.9375 c -6.681415,0.367708 -13.294717,2.476553 -18.790585,6.328128 -7.214779,4.957157 -12.525687,12.699678 -14.258328,21.3077995 -2.02899,9.4700735 0.16218,19.7909095 6.050198,27.5071315 5.331318,7.180103 13.60646,12.0934 22.474176,13.288858 9.406161,1.419575 19.344215,-1.375219 26.6413594,-7.475798 C -2.3546041,25.196548 2.2572031,16.363201 2.9347553,7.156079 2.9921055,5.3156002 3.3659383,3.3577323 2.6139455,1.6111609 1.9017357,0.22848917 0.23340667,-0.11755922 -1.1922919,-0.07755537 -8.8688398,-0.53584653 -16.30759,-4.4098977 -21.075822,-10.472341 c -3.674259,-4.56506 -5.809151,-10.330661 -6.039117,-16.181527 -0.05063,-1.177966 -0.531137,-2.437635 -1.676077,-2.947694 -0.880677,-0.44085 -1.890413,-0.357998 -2.84375,-0.335938 z m -2.482422,5.96875 c 0.462094,0.06333 1.259356,-0.24661 1.103516,0.501953 1.057947,8.572032 5.569368,16.635972 12.298058,22.0470409 4.987096,4.0640909 11.1614891,6.6425395 17.5554578,7.3455373 -0.3224413,6.8773018 -3.3904709,13.5010508 -8.1699218,18.4179688 -0.274914,0.268395 -0.821633,0.810286 -1.216797,1.166016 -5.163459,4.716421 -12.124116,7.415734 -19.122231,7.343344 -6.825594,-0.0083 -13.601419,-2.60013 -18.681866,-7.16106 -3.144646,-2.845362 -5.711973,-6.36185 -7.404001,-10.253226 -2.576703,-5.9879904 -3.216826,-12.83556 -1.472617,-19.1425507 0.189409,-0.7146647 0.499424,-1.7274417 0.803827,-2.5412998 1.567767,-4.1210075 4.141188,-7.8708035 7.409938,-10.8274285 3.768167,-3.35526 8.444644,-5.693576 13.428502,-6.542043 1.144106,-0.201346 2.308843,-0.302005 3.468135,-0.354252 z" /></g><g
       id="g190"
       transform="matrix(1.3333333,0,0,-1.3333333,518.11332,463.28388)"><path
         id="path192"
         style="fill:#000000;fill-opacity:1;fill-rule:nonzero;stroke:none"
         d="m -5.6015625,-55.527344 c -3.5744602,0.185885 -7.4112305,1.206971 -9.7832035,4.072266 -0.978059,1.155803 -1.569384,2.623261 -1.949218,4.044922 -1.925048,-0.17498 -3.94908,-0.0681 -5.660932,0.923109 -2.905986,1.592892 -4.332735,4.934106 -4.600785,8.111152 -0.484563,3.832976 0.05754,8.092309 2.738279,11.059489 2.801992,3.0884 7.103156,4.135925 11.117676,4.387431 3.014803,0.220354 6.0681912,0.04032 9.0620116,-0.125713 -2.7401415,4.397754 -5.0892642,9.346212 -5.0527344,14.6347661 0.069892,3.7665896 1.7891545,7.51106249 4.8125,9.8105469 1.2896849,1.0271601 2.7855584,1.9156772 4.39440638,2.2552612 C 0.64743126,3.5890117 1.5747779,2.3646774 1.172907,1.2355549 0.99064088,0.335042 0.08563054,-0.00130674 -0.66392241,-0.31553481 -3.6459504,-1.8262343 -5.7699499,-5.0494275 -5.5912212,-8.4414044 c 0.07834,-4.2178466 2.1439088,-8.0756336 4.3567515,-11.5507236 0.95585123,-1.517614 2.13316886,-2.894088 3.0782197,-4.410216 0.8220642,-1.712329 -0.8196999,-3.826534 -2.6640625,-3.605468 -2.1053725,0.159681 -4.342206,0.262317 -6.3515625,0.396484 -3.76137,0.166634 -7.65189,0.277014 -11.26461,-0.94367 -2.04344,-0.724379 -3.856774,-2.354262 -4.296219,-4.544623 -0.591953,-2.391492 -0.386135,-4.961684 0.363563,-7.291004 0.500032,-1.330149 1.72728,-2.433953 3.207311,-2.398924 2.384875,-0.149418 4.492041,1.167645 6.616908,2.043455 -0.09904,-2.248266 -0.665146,-4.788248 0.760364,-6.760769 1.449204,-1.835081 4.0083386,-1.94124 6.1559842,-1.902754 2.0103219,0.193493 3.6240593,-2.001174 3.0621676,-3.883352 -0.3336514,-1.3271 -1.6774906,-2.284239 -3.0351563,-2.234375 z" /></g><g
       id="g194"
       transform="matrix(1.3333333,0,0,-1.3333333,463.72332,300.47335)"><path
         id="path196"
         style="fill:#000000;fill-opacity:1;fill-rule:nonzero;stroke:none"
         d="m 17.474609,-6.7109375 c -5.797068,0.492818 -11.5884129,1.1204658 -17.3730465,1.7207031 -1.3499907,0.1533655 -2.5357593,1.4092787 -2.2871094,2.8085938 0.1501146,1.34967951 1.46532833,2.35385158 2.80111294,2.23728071 C 5.4191548,0.37578748 10.285656,0.01194734 14.972656,-1.0996094 c 1.29932,-0.3721713 2.668756,-0.6533354 3.861058,-1.2899997 1.432945,-0.9181912 1.238207,-3.2978176 -0.267308,-4.0400784 -0.329987,-0.1826569 -0.714803,-0.2816211 -1.091797,-0.28125 z" /></g><g
       id="g198"
       transform="matrix(1.3333333,0,0,-1.3333333,495.46879,397.41668)"><path
         id="path200"
         style="fill:#000000;fill-opacity:1;fill-rule:nonzero;stroke:none"
         d="m -15.257812,-1.265625 c -8.757659,0.30357628 -17.543588,1.94206548 -25.583592,5.5033162 -7.233785,3.0868404 -13.796261,7.6393828 -19.409287,13.1327188 -7.227227,6.92193 -13.457508,15.19463 -16.670805,24.759862 -2.86824,8.459766 -3.112687,17.755482 -0.783355,26.373498 1.897978,7.192719 5.281093,13.959625 9.620243,19.984973 5.365232,7.10941 13.55676,11.888097 22.294316,13.442147 7.351007,1.3776 15.041747,0.88489 22.183046,-1.316 4.267297,-1.361531 8.514337,-3.440891 11.431465,-6.937156 1.668414,-2.078525 2.5254244,-4.899137 1.814062,-7.522252 -0.692692,-3.755111 -2.59069,-7.60551 -6.110545,-9.426253 -1.98596,-1.08924 -4.30292,-1.323625 -6.531642,-1.295635 0.804336,-4.800431 0.72779,-10.041099 -1.748404,-14.37013 -1.749806,-2.990496 -5.109424,-4.943771 -8.582389,-4.927988 -1.846163,-0.04944 -3.683215,0.30745 -5.436785,0.864524 -1.821112,-2.865086 -4.957009,-4.735147 -8.28682,-5.239506 -4.437238,-0.747319 -9.341141,0.931934 -11.986217,4.664601 -2.040692,2.806905 -2.184829,6.677444 -0.770021,9.789238 0.689689,1.671073 1.643301,3.306774 2.955841,4.54125 1.0998,0.607219 2.634133,-0.03173 2.860654,-1.294645 0.341404,-1.014304 -0.490516,-1.807204 -0.908734,-2.637902 -1.079958,-2.041664 -1.809054,-4.699627 -0.534625,-6.81913 1.888703,-2.890824 6.093799,-3.469849 8.99533,-1.841538 1.14808,0.601011 2.037353,1.63534 2.457795,2.86107 1.263538,1.074251 2.587851,2.071278 3.888672,3.099609 2.511583,-1.041686 5.265001,-2.367842 8.037922,-1.598335 1.997508,0.710155 2.801667,2.960989 3.106381,4.884062 0.530228,3.144576 0.192941,6.391513 -0.706803,9.436929 -0.102191,0.315669 -0.328265,1.02886 -0.496094,1.492188 -0.600972,1.978225 1.329173,4.080394 3.343411,3.769189 2.489249,-0.422398 5.18296,-1.194312 7.625818,-0.157914 2.212966,1.08736 2.856084,3.785586 3.282724,5.959037 0.107449,1.685364 -1.352234,2.926546 -2.559139,3.872965 -1.803628,1.369908 -3.867444,2.359487 -5.995549,3.113363 -0.463882,0.166304 -1.257223,0.42125 -1.858883,0.589572 -9.051082,2.611935 -19.19928,1.849612 -27.496806,-2.737308 -4.882007,-2.72494 -8.852493,-6.943093 -11.491293,-11.854692 -4.415283,-7.67894 -7.309039,-16.495945 -6.818472,-25.434601 0.460408,-8.820724 4.215026,-17.19217 9.508489,-24.159656 4.434779,-5.843973 9.863026,-10.887122 15.734606,-15.260577 7.442224,-5.335504 16.199262,-8.6110286 25.139156,-10.3829721 1.145392,-0.2188798 2.541547,-0.4572395 3.7943,-0.630094 3.84834,-0.5393605 7.600359,-0.8107351 11.477966,-0.8581873 2.1444308,1.966e-4 4.1847538,0.117099 6.35273438,0.1953125 C 1.3684358,4.1784743 2.200329,2.3541858 1.4511719,1.0859375 0.86874883,-0.13024774 -0.61962769,-0.08372489 -1.7532324,-0.33967582 -6.2054976,-1.1290397 -10.742666,-1.3458098 -15.257812,-1.265625 Z" /></g></g></svg>
